<?xml version="1.0" encoding="utf-8"?>
<!-- Generator: Adobe Illustrator 23.0.5, SVG Export Plug-In . SVG Version: 6.00 Build 0)  -->
<svg version="1.1" id="Layer_1" xmlns="http://www.w3.org/2000/svg" xmlns:xlink="http://www.w3.org/1999/xlink" x="0px" y="0px"
	 viewBox="0 0 595.3 553.8" style="enable-background:new 0 0 595.3 553.8;" xml:space="preserve">
<g>
	<g>
		<path d="M484.1,147.4c1.2-1.7,3-2.5,4.7-3.6c4.5-2.9,9-5.8,13.4-8.8c0.9-0.6,1.8-1.4,3-1.4c-2.4,2.6-5.5,4.2-8.4,6
			C492.7,142.3,488.8,145.5,484.1,147.4z"/>
	</g>
	<g>
		<path d="M529.7,107.9c3.2-5.1,6.5-10.2,9.7-15.3c0.4,0.4,0.3,0.8,0.1,1.3c-2.7,4.9-5.5,9.8-9.1,14.2
			C530.1,108.2,529.9,108.2,529.7,107.9z"/>
	</g>
	<g>
		<path d="M482.4,117.2c3.8-3.1,8.2-5.4,12.3-8c2.5-1.5,4.4-4.2,7.6-4.6c-5.9,4.9-12.5,8.7-19.1,12.6
			C483,117.2,482.7,117.1,482.4,117.2z"/>
	</g>
	<g>
		<path d="M486,130.9c-0.3,0-0.5-0.1-0.8-0.1c4.9-3.2,9.8-6.5,14.8-9.7c0.3-0.3,0.6-0.2,0.9,0.1C496.2,124.9,491.2,128.1,486,130.9z
			"/>
	</g>
	<g>
		<path d="M510.4,77.2c-4.5,4.2-9.2,8-14.4,11.3c-0.2-0.1-0.3-0.3-0.2-0.4c0.1-0.1,0.1-0.2,0.2-0.2c4.5-3.6,9.1-7.2,13.6-10.8
			C509.9,76.8,510.2,76.9,510.4,77.2z"/>
	</g>
	<g>
		<path d="M558.9,23.5c-3.1,4.7-5.8,9.7-9.6,13.8c-0.3-0.2-0.4-0.5-0.1-0.8c3-4.4,6-8.7,9-13.1C558.4,23.1,558.6,23.1,558.9,23.5z"
			/>
	</g>
	<g>
		<path d="M505.8,146.8c-3.6,3.2-7.6,5.8-11.9,8.1c-0.3,0.2-0.6,0.1-0.8-0.2c4.2-2.9,8.4-5.8,12.6-8.6
			C506,146.3,506.1,146.5,505.8,146.8z"/>
	</g>
	<g>
		<path d="M496,87.8c0,0.2,0,0.4,0,0.6c-4.2,2.9-8.3,5.8-12.5,8.7c-0.3-0.2-0.4-0.5-0.1-0.9C487.7,93.5,491.4,90.1,496,87.8z"/>
	</g>
	<g>
		<path d="M529.7,107.9c0.2,0,0.5,0.1,0.7,0.1c-2.4,4-5.4,7.5-8.5,10.9c-0.3,0.3-0.5,0.2-0.7-0.1C524,115.1,526.9,111.5,529.7,107.9
			z"/>
	</g>
	<g>
		<path d="M553.6,42.2c1.9-4.4,3.8-8.7,5.7-13.1c0.3-0.2,0.5-0.1,0.7,0.1c-1.4,4.9-3.9,9.3-6.2,13.8
			C553.5,42.8,553.5,42.5,553.6,42.2z"/>
	</g>
	<g>
		<path d="M531,57.8c-2.8,3.7-6.3,6.6-9.7,9.7c-0.3,0.2-0.5,0.2-0.7-0.1c3.4-3.4,6.9-6.9,10.3-10.3C531.2,57.3,531.2,57.5,531,57.8z
			"/>
	</g>
	<g>
		<path d="M560,29.2c-0.2,0-0.5-0.1-0.7-0.1c0-1.3,0.5-2.4,1.3-3.3c0.4-1,0.4-2.1,1.1-2.9c0.1-0.6,0-1.3,0.6-1.7
			c0.9-0.7-0.1-2.7,1.7-2.8C563.5,22.3,561.8,25.7,560,29.2z"/>
	</g>
	<g>
		<path d="M539.5,93.8c0-0.4-0.1-0.9-0.1-1.3c1.7-3.4,3.4-6.9,5-10.3c0.3-0.2,0.5-0.2,0.8,0.1C543.8,86.4,541.7,90.1,539.5,93.8z"/>
	</g>
	<g>
		<path d="M510.4,98.3c2.6-3.4,6.1-5.7,9.1-8.7c0.3,0.2,0.3,0.5,0,0.7C516.7,93.2,514,96.3,510.4,98.3z"/>
	</g>
	<g>
		<path d="M553.6,42.2c0.1,0.3,0.1,0.5,0.2,0.8c-1.5,2.7-2.7,5.5-4.5,7.9c-0.3,0.2-0.5,0.2-0.8-0.1C550.2,48,550.9,44.5,553.6,42.2z
			"/>
	</g>
	<g>
		<path d="M545.2,82.3c-0.3,0-0.5,0-0.8-0.1c0.4-1.1,0.8-2.2,1.2-3.4c-1.3-0.4-1.6,0.8-2.2,1.3c-0.3-0.2-0.4-0.5-0.1-0.8
			c0.2-1,1-1.6,1.6-2.3c0.6-0.4,0.8-1.1,1.4-1.4c0.8-0.4,1.6-0.6,1,0.8C546.8,78.4,546.5,80.5,545.2,82.3z"/>
	</g>
	<g>
		<path d="M548.5,50.8c0.3,0,0.5,0.1,0.8,0.1c-1.3,3.1-3.2,5.8-5.1,8.6c-0.3,0.2-0.6,0.2-0.8-0.1C545.2,56.6,546.4,53.4,548.5,50.8z
			"/>
	</g>
	<g>
		<path d="M505.8,146.8c0-0.2,0-0.5-0.1-0.7c1.9-1.5,3.8-3,5.6-4.5c0.3-0.3,0.6-0.2,0.8,0.2C510.2,143.7,508.6,146,505.8,146.8z"/>
	</g>
	<g>
		<path d="M505.7,159.2c2.1-2.3,4.2-4.5,6.3-6.8c0.3-0.2,0.5-0.2,0.7,0.1c-2,2.8-4.2,5.4-6.9,7.6
			C505.6,159.8,505.5,159.5,505.7,159.2z"/>
	</g>
	<g>
		<path d="M531,57.8c0-0.2-0.1-0.5-0.1-0.7c1.8-2.3,3.9-4.4,6.1-6.3c0.3-0.3,0.5-0.2,0.8,0.1C535.9,53.6,533.2,55.5,531,57.8z"/>
	</g>
	<g>
		<path d="M512.1,141.7c-0.3-0.1-0.5-0.1-0.8-0.2c2.3-2.1,4.3-4.5,7-6.2c-0.2,2.4-2.4,2.8-3.8,4.1C513.8,140.2,513,141,512.1,141.7z
			"/>
	</g>
	<g>
		<path d="M526.4,98.9c-1.6,1.6-2.9,3.6-5.1,4.6c-0.3-0.2-0.3-0.5-0.1-0.8c1.5-1.8,3.2-3.3,5.1-4.6
			C526.6,98.3,526.6,98.6,526.4,98.9z"/>
	</g>
	<g>
		<path d="M549.1,36.5c0,0.3,0.1,0.5,0.1,0.8c-1.7,2.1-2.7,4.7-5.1,6.2c-0.4-0.2-0.4-0.4-0.2-0.7C545.7,40.7,547.4,38.6,549.1,36.5z
			"/>
	</g>
	<g>
		<path d="M519.9,141.5c1.4-2.2,1.9-5,4-6.8c0.3,0.2,0.4,0.5,0.2,0.9c-1.1,2.4-2.3,4.7-4,6.7C519.8,142.1,519.7,141.8,519.9,141.5z"
			/>
	</g>
	<g>
		<path d="M525.7,130.7c0.4-1.3,2.2-2.5,0.1-3.9c-0.1-1.2,1.2-1.1,1.6-1.8c0.3-0.4,0.6-0.8,1.1-0.5c0.6,0.4,0.4,1.1,0.1,1.7l0,0
			c-0.7,0.6-0.9,1.5-1.1,2.4c-0.2,1.3-0.9,2.4-1.7,3.4C525.4,131.7,525.4,131.2,525.7,130.7z"/>
	</g>
	<g>
		<path d="M535,89.8c-1.4,1.8-2.7,3.7-4.6,5c-0.3,0.2-0.6,0.2-0.8-0.1c1.6-2.1,3.4-3.9,5.4-5.6c0.2,0.1,0.2,0.3,0.2,0.5
			C535.1,89.8,535,89.8,535,89.8z"/>
	</g>
	<g>
		<path d="M519.9,141.5c0,0.3,0.1,0.5,0.1,0.8c-0.8,1.9-2,3.6-3.4,5.1c-0.3,0.3-0.5,0.2-0.7-0.1
			C516.6,144.8,518.6,143.4,519.9,141.5z"/>
	</g>
	<g>
		<path d="M516,147.3c0.2,0,0.4,0.1,0.7,0.1c-0.9,2-2.3,3.7-3.9,5.2c-0.2,0-0.5-0.1-0.7-0.1C513.3,150.7,514.7,149,516,147.3z"/>
	</g>
	<g>
		<path d="M543.4,59.4c0.3,0,0.5,0.1,0.8,0.1c-1.1,2.1-2.2,4.2-4.1,5.7C540.4,62.8,542.2,61.3,543.4,59.4z"/>
	</g>
	<g>
		<path d="M505.8,133.2c1.2-2.1,3.1-3.4,5.1-4.6c0.3,0.2,0.4,0.5,0.1,0.7C509.5,130.9,507.9,132.3,505.8,133.2z"/>
	</g>
	<g>
		<path d="M547.4,76.5c-1.2-1.5-1.4,1-2.4,0.6c0.6-1.6,1.9-2.6,3.2-4.1C549,74.6,548.5,75.6,547.4,76.5z"/>
	</g>
	<g>
		<path d="M529.7,78.2c1.3-1.7,2.6-3.4,4-5.1c0.3-0.2,0.5-0.2,0.8,0.1c-1.2,2.2-2.9,4-4.6,5.7C529.5,78.7,529.5,78.4,529.7,78.2z"/>
	</g>
	<g>
		<path d="M510.9,113.1c-1.8,1-2.5,3.7-5.2,3.4c1.7-1.4,3.2-3,5.1-4.1C511.2,112.6,511.2,112.8,510.9,113.1z"/>
	</g>
	<g>
		<path d="M537.8,50.9c-0.3,0-0.5-0.1-0.8-0.1c1.3-1.9,2.9-3.6,4.6-5.2c0.3-0.3,0.5-0.2,0.7,0.1C540.8,47.4,539.3,49.2,537.8,50.9z"
			/>
	</g>
	<g>
		<path d="M528.7,126.3c-0.2-0.6,0.2-1.8-1.2-1.2c0.3-1.4,1.5-2.2,2.4-3.8C530.5,123.6,529,124.8,528.7,126.3z"/>
	</g>
	<g>
		<path d="M500.8,121.2c-0.3,0-0.6-0.1-0.9-0.1c1.4-1.4,2.8-2.7,4.7-3.4C504,119.5,502.4,120.4,500.8,121.2z"/>
	</g>
	<g>
		<path d="M519.5,90.3c0-0.2,0-0.5,0-0.7c1.3-1.5,2.7-3,4-4.5c0.3-0.4,0.7-0.4,1.1-0.1C523.2,87.1,521.3,88.7,519.5,90.3z"/>
	</g>
	<g>
		<path d="M534.4,73.2c-0.3,0-0.5-0.1-0.8-0.1c1.3-1.7,2.7-3.4,4-5.1c0.3,0.2,0.4,0.4,0.2,0.8C537,70.4,535.7,71.8,534.4,73.2z"/>
	</g>
	<g>
		<path d="M529.7,78.2c0,0.2,0,0.5,0.1,0.7c-1,1.4-1.9,3-3.4,4c-0.3-0.4-0.3-0.8-0.1-1.2C527.4,80.5,528.6,79.3,529.7,78.2z"/>
	</g>
	<g>
		<path d="M519.5,105c-1.5,1.4-3,2.8-4.5,4.1c-0.3,0.2-0.5,0.2-0.7-0.1c1.5-1.9,3.2-3.4,5.1-4.8C519.7,104.5,519.7,104.8,519.5,105z
			"/>
	</g>
	<g>
		<path d="M514.3,109.1c0.2,0,0.5,0.1,0.7,0.1c-0.8,1.9-2.6,2.8-4.1,3.9c0-0.2-0.1-0.5-0.1-0.7C512,111.3,513.1,110.2,514.3,109.1z"
			/>
	</g>
	<g>
		<path d="M511,129.2c0-0.2,0-0.5-0.1-0.7c1.5-0.9,2.1-2.9,3.9-3.5c0.3,0.2,0.4,0.4,0.2,0.8C513.8,127.1,512.7,128.5,511,129.2z"/>
	</g>
	<g>
		<path d="M529.6,94.7c0.3,0,0.6,0.1,0.8,0.1c-1.3,1.3-2.7,2.7-4,4c0-0.3-0.1-0.5-0.1-0.8C527.1,96.7,528.2,95.6,529.6,94.7z"/>
	</g>
	<g>
		<path d="M515,125.8c-0.1-0.3-0.1-0.5-0.2-0.8c0.8-1.3,2.4-1.9,3.5-2.9c0.2,0.1,0.3,0.3,0.2,0.4c0,0.2-0.1,0.2-0.2,0.2
			C517.4,123.9,516.5,125.2,515,125.8z"/>
	</g>
	<g>
		<path d="M522.4,131.9c-0.8,1.4-1.5,2.8-3.4,2.8c0.6-1.2,1.6-2.1,2.7-2.9C521.9,131.6,522.2,131.7,522.4,131.9z"/>
	</g>
	<g>
		<path d="M506.3,101.6c1.1-1.4,2.1-2.9,4.1-3.3C509.2,99.6,508.2,101.1,506.3,101.6z"/>
	</g>
	<g>
		<path d="M479.7,99.5c-0.3,0-0.6-0.1-0.9-0.1c1.6-1,3.1-2,4.7-3c0,0.3,0.1,0.6,0.1,0.9C482.1,97.8,481.2,99.1,479.7,99.5z"/>
	</g>
	<g>
		<path d="M543.4,79.3c0,0.3,0.1,0.5,0.1,0.8c-0.9,1-1.2,2.7-3,2.7C541.2,81.3,542.3,80.4,543.4,79.3z"/>
	</g>
	<g>
		<path d="M522.4,131.9c-0.2,0-0.5-0.1-0.7-0.1c0.8-1.3,1.6-2.6,2.9-3.4C524.5,130,523.4,131,522.4,131.9z"/>
	</g>
	<g>
		<path d="M518.3,122.7c0-0.2,0-0.4,0-0.7c1-1.1,1.9-2.2,2.9-3.3c0.2,0,0.5,0.1,0.7,0.1C521.1,120.5,519.7,121.6,518.3,122.7z"/>
	</g>
	<g>
		<path d="M525.7,130.7c0,0.4,0.1,0.9,0.1,1.3c0,1.4-1,2.4-1.7,3.4c-0.1-0.3-0.1-0.6-0.2-0.9C524.5,133.4,525.1,132,525.7,130.7z"/>
	</g>
	<g>
		<path d="M526.3,81.7c0,0.4,0.1,0.8,0.1,1.2c-0.4,0.9-1,1.6-1.8,2.2c-0.4,0-0.7,0-1.1,0.1C524.4,84,525.3,82.8,526.3,81.7z"/>
	</g>
	<g>
		<path d="M535,89.8c0-0.2-0.1-0.5-0.1-0.7c0.5-1,1.2-1.8,2.1-2.4c0.3-0.3,0.5-0.2,0.7,0.1C537.4,88.4,535.8,88.8,535,89.8z"/>
	</g>
	<g>
		<path d="M510.4,77.2c-0.3,0-0.5-0.1-0.8-0.1c1-1.2,2-2.4,3.6-2.8c0.2,1.4-1,1.6-1.7,2.2C511.1,76.7,510.8,77,510.4,77.2z"/>
	</g>
	<g>
		<path d="M519.5,69.2c-1,0.9-1.9,1.9-2.9,2.8c-0.3-0.4-0.3-0.7,0-1c0.8-0.9,1.6-1.9,2.8-2.5C519.7,68.7,519.8,68.9,519.5,69.2z"/>
	</g>
	<g>
		<path d="M511.5,76.5c0.6-0.7,1.2-1.5,1.7-2.2c0.4-0.2,0.7-0.5,1.1-0.7C514.2,75.3,513.1,76.2,511.5,76.5z"/>
	</g>
	<g>
		<path d="M542.3,45.7c-0.2,0-0.5-0.1-0.7-0.1c0.5-1.2,1.4-2.1,2.4-2.8c0.1,0.2,0.1,0.5,0.2,0.7C543.5,44.3,542.9,45,542.3,45.7z"/>
	</g>
	<g>
		<path d="M537.8,86.9c-0.2,0-0.5-0.1-0.7-0.1c0.6-1.1,1.2-2.2,2.4-2.8C539.6,85.3,538.2,85.8,537.8,86.9z"/>
	</g>
	<g>
		<path d="M516.7,70.9c0,0.3,0,0.7,0,1c-0.7,0.4-1.2,1.4-2.2,1.2C514.7,72,515.8,71.5,516.7,70.9z"/>
	</g>
	<g>
		<path d="M519.5,105c0-0.2-0.1-0.5-0.1-0.7c0.4-0.8,1-1.3,1.8-1.6c0,0.3,0.1,0.5,0.1,0.8C520.8,104.1,520.3,104.7,519.5,105z"/>
	</g>
	<g>
		<path d="M502.4,104.6c0.4-1,1-1.8,2.3-1.7C504.2,103.7,503.5,104.5,502.4,104.6z"/>
	</g>
	<g>
		<path d="M537.9,68.7c-0.1-0.3-0.1-0.5-0.2-0.8c0.6-0.6,0.8-1.5,1.8-1.6C539.4,67.4,538.7,68.1,537.9,68.7z"/>
	</g>
	<g>
		<path d="M527.6,128.6c-0.2-1.1,0-2,1.1-2.4C528.6,127.2,528.1,127.9,527.6,128.6z"/>
	</g>
	<g>
		<path d="M519.5,69.2c0-0.2,0-0.5-0.1-0.7c0.3-0.5,0.6-0.9,1.2-1c0.2,0,0.5,0.1,0.7,0.1C520.7,68.1,520.1,68.6,519.5,69.2z"/>
	</g>
	<g>
		<g>
			<path d="M287.1,226c0.2,1-0.6,1.5-1.1,2.2c-2.7,3.4-2.4,7.3-2.1,11.3c0.1,0.7,0.4,1.6,1.4,0.9c0.2,0.2,0.3,0.5,0.3,0.8
				c0,0.5,0.2,1.2-0.3,1.5c-0.5,0.3-0.8-0.2-1.1-0.5C281.7,236.4,283,229.1,287.1,226z"/>
		</g>
		<g>
			<path d="M285.5,241.1c0-0.3-0.1-0.5-0.1-0.8c0.9-2.2,1.7-4.5,4.1-5.6c-1.2,2.1-2.3,4.2-3.5,6.2
				C285.9,241.1,285.7,241.2,285.5,241.1z"/>
		</g>
		<g>
			<g>
				<path d="M374.5,367.1c-1.1-3.4-3.1-6.5-3.5-10.2c-2.3-6.5-4.4-13.1-4.5-20.1c0-1.3,0-2.6,0-3.9c0.2-1.3,0.4-2.5,0.3-3.8
					c0-0.3,0-0.6,0.2-0.9c0.9-0.5,1.4,0,1.7,0.8c0.2,1.5,0.2,3,0.1,4.5c-0.2,2.8,0.4,5.4,1.6,7.9c-0.5,2.1,1.6,3.5,1.3,5.5
					c0.9,3.2,2.3,6.1,3.9,9c1.7,2.9,2.6,6.1,4.6,8.8l0,0c1.1,3.4,3,6.4,4.3,9.7c1.5,4,3.4,7.9,4.7,11.9c0.1,0.4,0.4,0.8,0.8,1.1
					c1.2,4.6,3.5,8.8,5.2,13.2c0.3,0.7,0.6,1.4,0.5,2.1c0.9,2.8,1.5,5.6,2.7,8.2c1.9,5.8,2.7,11.8,4.1,17.7c0.6,2.7,0.3,5.4,0.8,8.1
					c1.4,5.8,1.2,11.7,1.1,17.7c-0.7,2-1.1,4.1-1,6.1c0.1,5.5-1.7,10.7-2.2,16.1c-1,1.5-0.3,3.4-1.2,4.8c-0.8,1.1-1.4,2.4-1.8,3.8
					c-2.6,8.6-6.4,16.7-11.3,24.2c-0.4,0.6-0.5,1.2-0.8,1.8l0,0c-1.8,1.9-2.9,4.3-4.6,6.3l0,0c-1.1,0.9-1.9,2-2.7,3
					c-2.1,2.7-4.6,4.9-6.9,7.3c-1.8,1.8-4.1,3.1-5.8,5.1l0,0c-3.3,2.1-6.4,4.4-9.8,6.4c-4.1,2.7-8.8,4.3-13.2,6.5
					c-1.6,0.1-3,0.6-4.4,1.3c-5.1,0.7-10,2.4-15.2,2.8c-1.1,0.2-2.2,0.2-3.3,0.5c-1,0.1-2,0.1-2.9,0.1c-3.5,0.1-7,0-10.4-0.6
					c-0.9-0.2-2.4-0.2-2.4-1.5c0-1.4,1.5-1.5,2.6-1.6c2.2-0.2,4.5,0.4,6.7-0.4c3.3-1.5,7-1.3,10.4-2.3c2.8-0.8,5.5-2,8.4-2.4
					c3.4-0.7,6.5-2.4,9.7-3.5c1.9-0.3,3.3-1.8,5.2-2.3c2.8-1.6,6-2.8,8.4-5.2c1.5-1.7,3.5-2.7,5.4-3.9c4.7-2.7,8.1-6.9,11.8-10.7
					c0.5-1.4,1.9-2.1,2.6-3.3c1.8-2.4,3.9-4.6,5.2-7.4c1.2-1.9,2.3-3.8,3.5-5.7c0.7-1.3,1.5-2.7,2.2-4c2.7-4.9,4.3-10.2,6.1-15.5
					c0.6-1.9,1-3.7,1.3-5.6l0,0c0.6-1,0.5-2.3,1.1-3.3c0.6-4.1,1.6-8.2,1.6-12.4c0.5-6,2.2-11.9,0.6-18.2c-0.9,0.7-0.6,1.4-0.7,2
					c0,1.2,0,2.4,0,3.6c-0.1,1.7-0.5,3.3-1.5,4.7c-0.6,0.9-0.2,2-0.6,2.9c-1.4,5.3-2.5,10.7-4.1,15.9c-1,1.7-1.5,3.5-2.1,5.4
					c-0.8,1.4-0.8,3.2-2,4.5c-0.8,2.9-2.9,5.1-3.7,7.9c-0.5,1.2-1.5,2.2-2,3.4c-1.4,0.8-1.6,2.6-2.8,3.6c-0.7,1.1-1.2,2.2-2,3.3
					c-1.5,1.9-3.2,3.7-5,5.2c-2.1,1.6-4.1,3.3-6.3,4.8c-3,1.6-5.8,3.5-9.2,4.3c-3.5,2.2-7.2,0.8-10.8,0.9c4-2,7.9-4,11.9-6.1
					c1.9-1.1,3.7-2.3,5.2-3.9l0,0c2.7-2.2,5.3-4.6,7.4-7.5l0,0c0.6-0.5,1.1-1.2,1.8-1.7c0.2-0.4,0.4-0.7,0.6-1.1
					c2.7-3.3,4.9-6.8,6.8-10.6c2.8-5.2,5.2-10.5,6.3-16.3c0.8-3.2,1.5-6.4,2.3-9.6c2.3-10.5,2.1-21.2,1.8-31.9
					c-0.1-5.5-0.8-10.7-1.9-16c-0.8-4-1.5-7.9-2.3-11.9c-0.6-5.1-2.3-9.9-4-14.8c-1.5-4.5-3.4-9-4.8-13.5
					C375.2,368,374.8,367.6,374.5,367.1z"/>
			</g>
			<g>
				<path d="M429.3,387.6c1.9,2.5,3.4,5.1,4.6,8c1.1,2.9,2.1,5.9,2.6,8.9c0.8,5.1,1.5,10.3-0.6,15.3c-0.4,2.1-1.2,4.1-2,6.1
					c-0.4,0.7-0.8,1.5-1.2,2.2c-1,1.1-1.5,0.8-1.3-0.6c0.4-1.9,0.4-3.7,0.5-5.6c1.3-3.6,1.4-7.3,0.5-11c-0.7-4.8-2.2-9.3-4.9-13.4
					c-0.9-1.4-1.8-2.9-2.9-4.2c-0.3-0.4-0.7-0.8-1-1.2c-2.5-3.7-5.5-6.9-8.7-10c-2.1-2.1-4.3-4.2-6.3-6.4
					c-3.5-3.5-7.2-6.9-10.2-10.9c-0.8-1.4-2.1-2.4-3.3-3.5c-0.4-1.1-1.8-1.4-1.9-2.7c-0.3-1.2-1.6-1.7-1.9-2.9c-2-3.2-3.8-6.6-6-9.7
					c-0.4-0.9-0.8-1.8-1.2-2.7c-0.8-2.6-2-5.1-2.5-7.7c-0.7-3.3-1.5-6.6-1.7-10c-0.4-7.7,1.2-14.9,4.3-21.9c2.4-5.2,6-9.4,10.3-13.1
					c1.2-0.8,2.1-0.1,3,0.7c2.9,2.6,5.9,5.2,9.2,7.4c1,0.7,2.1,1.2,3.2,1.7c3.9,2,8,3.6,12,5.1c8.9,2.5,17.9,2.3,26.8,0
					c3.9-1.4,7.8-3,11.4-5.1c6-3.6,10.7-8.8,16-13.1c2.6-2.2,5.3-4.3,8.5-5.7c3.9-1.5,7.7-3.2,11.9-3.6c6.2-0.6,11.4,1.8,16.3,5.3
					c0.5,0.3,0.9,0.8,0.6,1.5c-0.3,0.7-1.1,0.4-1.5,0.3c-2.2-0.7-4.4-1.4-6.8-1.8c-6-1.1-11.4,0.1-16.5,3.2c-1.5,0.9-3.1,1.8-4.5,3
					c-0.6,0.6-1.1,1.3-1.9,1.6c-3.7,2.3-6.7,5.6-10.4,8c-3.3,2.9-7.3,4.9-11,7.2c-0.8,0.4-1.5,0.7-2.3,1.1c-1.5,0.5-2.9,0.9-4.4,1.5
					c-8.6,3.3-17.9,2.1-26.6,4c-1.7-0.7-3.4-1.3-5.1-2.1c-0.7,0-1.4-0.1-2.1-0.1c-1.2-0.4-2.4-0.4-3.7-0.3c0.9,1,1.9,1.7,3,2.1
					c1.8,1.7,4.1,2.4,6.3,3.4c1.4,1,3.1,1.5,4.5,2.3c1.5,0.6,3,1.1,4.6,1.7c2.6,1.9,5.9,2.2,8.8,3.4c3.4,0.9,6.7,2,10.3,2.1
					c2.3,0,4.5,1,6.9,0.8c0.3,0.1,0.6,0.2,0.9,0.4c4.8,0.3,9.5,0.3,14.3,0.1c7.4-0.4,14.6,1.4,21.9,1.2c3,0.2,5.8,1.6,8.9,1.7
					c0.4,0.2,0.8,0.3,1.2,0.5c1.8,1.2,3.9,1.4,5.8,2.4c1.3,0.7,2.7,1.2,3.8,2.3l0,0c0.9,0.3,1.8,0.8,2.5,1.6c0.8,0.8,2.1,1,2.4,2.3
					c2.1,1.4,2.7,4,4.3,5.8l0,0c-1,0.9-1,0.9-2.1,0c-1.5-1.2-2.6-3-4.8-3.4c-1.9-1.1-3.8-2.3-5.7-3.4c-0.8-1-2.1-1.2-3.2-1.8
					c-3.1-1.5-6.2-2.6-9.7-2.5c-1.3,0-2.4-0.5-3.6-0.8c-6.9-1.1-13.8-0.9-20.7-0.9c-2.6,0-5.1-0.2-7.7,0c-6.3,0.5-12.4-0.7-18.5-1.4
					c-1.2,0.2-1.8-1-2.8-1.1c-5-1.3-9.8-3-14.5-5c-2.8-1.2-5.5-2.5-8.3-3.6c-4.7-2.4-9.6-4.6-13.7-7.9c-2.5-1.7-5-3.4-7.4-5.2
					c-0.4-0.3-0.8-0.7-1.2-1c-1.2-1.2-2.2-2.6-3.9-3.1c-1.4-0.9-2.6-1.9-3.4-3.5c-2.2,0.1-2.9,2-4.1,3.4c-0.4,1.3-1,2.5-2.4,2.9
					c-1.5,2-2.8,4.1-1.1,6.7c0.1,0.7,0.2,1.4-0.2,2c-2.8,1.8-3.2,4.9-1.2,8.3c1,2,1.9,4.1,3.3,5.9c0.4,0.7,0.8,1.4,1.2,2.2
					c1.3,3.3,3.7,5.9,5.8,8.6c0.2,0,0.3,0.1,0.4,0.2c0.7,0.7,1.2,1.5,1.8,2.1c0.7,0.6,1.4,1.3,1.7,2.2c1.8,2.9,4.5,4.8,6.7,7.3
					c1.8,2,4.2,3.5,5.5,6.1c-0.1,0.6-0.6,0.9-1.2,0.9c-2.3-1.1-4-3.1-6-4.7c-1.5-0.6-2.3-2-3.5-3c-1-1-1.8-2-2.9-2.9
					c-0.5-0.5-1.2-1-1.3-1.8c-2.5-2.6-4.8-5.5-7.1-8.3c-0.6-0.7-1.2-1.3-1.7-2.1l0,0c-0.3-0.3-0.4-0.6-0.6-1
					c-0.3-0.8-0.8-1.6-1.1-2.4c-0.2-0.4-0.1-0.9-0.7-1c-0.2,0-0.3,0.2-0.2,0.4c1.2,2.3,0.2,5.2,2.2,7.2c0.7,1.8,1.7,3.4,2.4,5.1
					c0.8,2.9,2.9,4.9,4.4,7.4c2.1,1.9,3.4,4.5,5.6,6.2c0.9,0.9,1.8,1.8,2.7,2.6l0,0c0.9,1.2,2,2.2,3.1,3.2c1.1,1.2,2.3,2.3,3.5,3.4
					c1.5,1.3,2.8,2.9,4.5,4c1.5,1.5,3,3.1,4.5,4.6c1.4,2.2,3.6,3.7,5.1,5.7l0,0c0.5,0.7,1,1.4,1.4,2.2
					C427.1,385,428,386.5,429.3,387.6z"/>
			</g>
			<g>
				<path d="M478.2,383.2c-4.7-2.9-9.4-5.7-14.1-8.6c-4.3-2.2-8.5-4.8-13.1-6.3l0,0c-2.2-1.4-4.5-2.5-6.9-3.4
					c-7.5-3.1-14.3-7.6-21.2-11.9c-1.4-1.5-3.1-2.7-5-3.6c-2.7-2-5.6-3.8-8-6.3c-2.8-2.2-5.3-4.5-8-6.9c-0.8-0.7-1.6-1.4-2.4-2.1
					c-1.7-3-4.5-5.3-6.4-8.2c-0.1-0.2-0.3-0.5-0.3-0.8c-0.1-0.8,0.1-1.4,0.9-1.8c0.5-0.1,0.8,0.1,1,0.5c2,3.3,4.8,5.9,7.3,8.7
					c2.9,2.7,5.7,5.4,8.8,7.9c2.6,1.7,4.9,3.9,7.8,5c1.1,0.7,2.2,1.3,3.2,2.2c8.1,5,16.6,9.1,25.5,12.7c11.3,4.5,23.1,8.2,33.3,15.2
					c4.1,2.8,8,5.7,11,9.7c1,1.7,2,3.3,3.5,4.6l0,0c0.7,1.2,1.4,2.4,2.2,3.5l0,0c1,2.5,2.3,4.8,3.1,7.3c2.1,5.9,2.4,11.9,1.1,18
					c-0.3,1.2-1,2.3-1.2,3.6c-0.2,1.3-1,1.4-1.7,0.2c-0.1-0.3,0-0.6,0-0.9c0.6-3.2,0.3-6.3,0.2-9.5c-0.1-0.4-0.2-0.8-0.4-1.2
					c-0.2-0.9,0-1.9-0.2-2.8c-0.1-0.2-0.2-0.5-0.3-0.7c-0.9-1.9-1.2-4.2-2.6-5.9c-0.7-2-2.3-3.4-3.1-5.3c-0.7-0.9-1.2-1.9-2.1-2.7
					c-2.5-2.4-4.8-5-7.5-7.3C481.2,385.2,480,383.8,478.2,383.2z"/>
			</g>
			<g>
				<path d="M428,345.5c-3.8-2.2-7.4-4.6-10.8-7.4c-0.7-0.6-1.4-1.2-2.3-1.8c-2.5-1.9-4.9-3.7-6.9-6.2c-3.1-4-6.9-7.3-9.8-11.4
					c-0.9-1-1.9-2-1.9-3.5c0.1-0.4,0.4-0.7,0.8-0.8c2.5,0.8,2.9,3.6,4.7,5.1c0.8,0.8,1.3,1.8,2.3,2.4c0.5,0.7,1.2,1.1,1.6,1.9
					c0.1,0.1,0.1,0.3,0.1,0.4c0.3,0.6,1.1,0.6,1.4,1.2c0.5,0.8,1.2,1.6,2.1,1.9c1.1,0.6,1.7,1.8,2.8,2.5c1.1,1,2.2,1.9,3.4,2.8
					c0.9,0.2,1.4,1.1,2.2,1.4c2.1,1.7,4.3,3.4,6.7,4.7c3.6,2.3,7.6,3.8,11.2,6.1c1.9,0.5,3.5,1.6,5.3,2.3c1.6,0.6,3.1,1,4.7,1.2
					c0.7,0.2,1.4,0.4,2.1,0.7c6.4,1,12.7,2.6,19,3.9c3.2,1.3,6.6,1.6,9.8,2.8c3.6,0.6,6.9,1.8,10.1,3.4c2.4,0.6,4.3,2,6.2,3.5
					c1.8,1.8,4.1,3.2,5.4,5.6c1.6,1.7,2.5,3.8,3.6,5.8c0.3,0.9,0.7,1.7,0.9,2.6c0.2,0.8,1.4,1.8,0.3,2.4c-0.9,0.5-1.4-0.9-2.1-1.4
					c-0.2-0.2-0.3-0.4-0.5-0.6c-2-3.1-4.5-5.7-8.1-7c-5.1-3.2-10.7-5.4-16.5-6.7c-5.2-1.1-10.3-2.8-15.5-3.5c-1.1-0.1-2-0.5-2.8-1.2
					c-10.1-2.5-19.4-6.9-28.2-12.6C429.1,345.7,428.6,345.7,428,345.5z"/>
			</g>
			<g>
				<path d="M525.2,369.4c-4-4.1-8.2-7.9-13.1-10.9c-1.1-0.8-2.2-1.6-3.5-2.2c-7-3.8-14.3-6.9-22.1-8.5c-3.5-0.7-6.8-2.6-10.5-2.2
					c-1,0.1-2-0.4-2.8-1.2c-3.3-1.1-6.7-2-10.2-1.9c-0.3,0-0.6-0.1-0.8-0.1c-1.7-0.7-3.6-0.9-5.4-1c-0.6,0-1.1-0.2-1.7-0.3
					c-1.3-0.6-2.8-0.7-4.2-0.9c-0.7-0.3-1.5-0.1-2.2-0.3c-3.4-2-7.4-2.4-10.9-3.9c-1.2-0.5-2.4-1.1-3.6-1.6
					c-1.7-0.6-0.8-1.3,0.1-1.9c1.7-0.2,3,1,4.6,1.2c1.6,0.6,3.1,1.2,4.7,1.7c1.2,0.3,2.4,0.6,3.6,1c0.9,0.4,1.9,0.3,2.8,0.4
					c0.4,0,0.8,0.1,1.2,0.3c1.3,0.9,2.7,0.8,4.1,0.7c1.2-0.1,2.4,0.1,3.6,0.3c1.3,0.9,2.9,0.9,4.4,0.8c1.7,0.2,3.4,0.4,5.1,0.5
					c1.6,1.8,3.8,1.8,5.9,1.8c1.6,0,3.2,0,4.8,0c4.1,0.5,8.3,0.9,12.3,2c4.6,0.8,9.1,1.7,13.2,4.1c4.1,1.8,8,3.9,11.5,6.7
					c1.6,1.9,3.6,3.2,5.4,4.8c2,1.8,3.8,3.8,5.3,6.1c2.5,3.5,4.5,7.2,4.8,11.6c0,0.4,0.2,0.7,0.1,1.1c-0.1,0.6-0.2,1.5-1,1.6
					c-0.9,0.1-1.1-0.7-1.1-1.3c-0.3-2.7-2-4.8-3.1-7.2C526.2,370,525.7,369.7,525.2,369.4z"/>
			</g>
			<g>
				<path d="M457.9,401.9c4.4,7.8,5.4,16.3,4.8,25.1c-0.4,5.9-2,11.2-5.7,15.9c-1.2,1.5-2.5,2.8-4.2,3.6c-4.3,2.2-8.8,3.8-13.7,3.7
					c-0.8,0-1.7,0.2-2.3-0.7c-0.2-0.3-0.2-0.5,0-0.8c1.4-0.8,3-0.4,4.4-0.8c0.2-0.1,0.5-0.2,0.7-0.2c0.8-0.3,1.6-0.6,2.4-0.9
					c0.9-0.3,1.7-1.1,2.7-1.2c1.8-1.2,3.8-2.2,5-4.2c2.8-3.5,4.3-7.6,5-12c0-7.2,0.5-14.4-2.2-21.4c-0.7-1.8-1.6-3.6-2.2-5.4
					c-2.1-3.4-4.2-6.8-6.2-10.3c-0.8-1.8-2.2-3.2-3.4-4.6l0,0c-0.8-1.6-2.3-2.4-3.2-3.8c-1.5-2.6-4.3-4.1-6.1-6.4
					c-1.8-1.6-3.4-3.4-5.2-5c-0.7-0.6-2-1.8,0.3-2.3c1.6,1.1,3.1,2.1,4.7,3.1c1.7,1.5,3.4,3.1,5.1,4.6c1.7,2.4,4.6,3.8,6.4,6.1
					c1,1.3,1.8,2.7,3.3,3.6l0,0C451.8,392.1,454.9,397,457.9,401.9z"/>
			</g>
			<g>
				<path d="M504,320.3c-0.6-0.3-1.2-0.7-1.8-1c-1.3-1.2-3-1.5-4.5-2.4c-1.1-0.4-2.3-0.8-3.4-1.2c-3.7-1.6-7.7-1.8-11.5-1.4
					c-3,0.3-6.2-0.4-9,1.5c-7.6,1-15.3,2.7-23,1.9c-5.1-0.5-10.2-1.2-15.2-2.5c-0.5-0.5-1.4,0-2-1.3c5-0.6,9.7,1.2,14.3,0.2
					c7.1,0.3,14-1.2,20.8-3c6.7-1.4,13.4-2.3,20.3-1.6c2.5,0.2,4.8,0.8,7.1,1.7c3,1.8,5.9,3.8,7.8,6.9
					C505.2,319.7,505.2,319.7,504,320.3z"/>
			</g>
			<g>
				<path d="M483.4,289.4c8.8-7.7,18.6-9.2,29.5-4.9c-3-3.5-6.9-5-11.1-5.8c-5.2-1.1-10,0.4-14.8,2.2c-0.8,0.3-1.5,0.8-2.4,0.5
					c10.6-6.7,21.6-5.8,31.4,4.1c0.5,0.7,0.4,1.1-0.6,1.1c-3.8-0.7-7-2.9-10.9-3.4c-6.3-0.8-11.8,0.6-16.9,4
					c-1.1,0.7-2.2,1.4-3.3,2.2C483.9,289.8,483.6,289.7,483.4,289.4z"/>
			</g>
			<g>
				<path d="M401.5,309.4c5.6,5.4,11.4,10.4,17.7,14.8c-0.4,0.8-1.2,1.1-1.9,1.7c-1.1-0.7-2.2-1.5-3.3-2.2c-0.9-0.4-1.6-1.1-2.3-1.7
					c-4.6-3.6-9.1-7.2-12.6-12c-0.7-1.1-1.3-2.2-2.2-3.2c-0.3-0.3-0.5-0.8-0.1-1.2c0.5-0.4,0.9,0,1.2,0.3
					C399.2,306.9,400.3,308.2,401.5,309.4z"/>
			</g>
			<g>
				<path d="M428.6,370.5c-1.5,1-0.1,1.5,0.4,1.9c1.8,1.5,3.5,3,4.8,4.9c-0.2,0.3-0.5,0.3-0.7,0.1c-2.8-2.5-5.6-5-8.4-7.5
					c-0.7-0.6-1.5-1.2-2.2-1.8c-1.7-1.5-3.5-3-5.2-4.5c-1-1.4-2.7-2-3.9-3.2c-0.7-0.8-1.9-1.2-1.9-2.6c0.5,0,1-0.1,1.2-0.6
					c1-0.7,1.5,0.3,2.2,0.6c3,1.9,5.1,4.9,8,6.9c1.4,1,2.6,2.4,4.1,3.3c0.2,0.2,0.4,0.4,0.5,0.6C428,369.3,429.2,369.4,428.6,370.5z
					"/>
			</g>
			<g>
				<path d="M434.4,332.8c-0.3,0.3-1.3,0.8-0.3,1c4.4,1.1,8.4,3.4,12.9,4.1c1,0.1,1.6,0.6,1.7,1.6c-2.1,0.4-4-0.9-5.9-1.3
					c-1-0.2-2.1-0.7-3.1-1.2c-1.3-0.3-2.3-1.1-3.6-1.4c-4.4-1.5-8.5-3.9-12.6-6.1c-0.3-0.8-1.5-1-1.4-2.1c0.1-0.3,0.2-0.5,0.5-0.7
					c3.6,1.4,7,3.4,10.7,4.6C433.8,331.7,434.7,331.9,434.4,332.8z"/>
			</g>
			<g>
				<path d="M386.5,408.8c1.3,3.2,2,6.5,2.1,9.9c0.3,10.3,0.8,20.7-0.4,31c-0.3,2.4-1.1,4.7-1.7,7.1c-0.4-1.9-0.1-3.6,0.5-5.5
					c1.3-4,0.7-8.3,1-12.4c0.6-7.4-0.2-14.8-0.5-22.1c0-1.2-0.6-2.4-0.8-3.6C386.4,411.7,385.5,410.3,386.5,408.8z"/>
			</g>
			<g>
				<path d="M373.9,273.5c3.4-0.2,6.4,1.4,9.6,2c10.3,1.9,20.5,4.3,31,1.9c1.5-0.3,2.7-1.3,4.3-1.2c0.3-0.2,0.6-0.1,0.7,0.2
					c-6.8,3-13.8,3.5-21.1,2.5c-8-1.1-15.8-2.7-23.7-4.3c-0.3-0.1-0.7-0.4-1-0.5c-0.2-0.1-0.2-0.2-0.2-0.3
					C373.8,273.6,373.9,273.5,373.9,273.5z"/>
			</g>
			<g>
				<path d="M403.6,268.3c-4.8,0.5-9.5,2.1-14.4,2.2c-6.9,0.1-13.8,0.2-20.8,0.3c-0.5,0-1.1-0.2-1.6,0.3c0.1,0.8,1.1,0.6,1.4,1.2
					c-2.4,0.4-4.2-1.7-6.7-1.2c0.6-1.6,1.6-1.2,2.4-1.2c8.8,0.3,17.5-0.1,26.2-0.4c1.4,0,2.9-0.1,4.2-0.6
					C397.4,267.8,400.5,267.9,403.6,268.3z"/>
			</g>
			<g>
				<path d="M384.2,303.7c0.6,1.9-1,3.2-1.5,4.7c-2.2,7.4-3.4,14.7-1.6,22.4c0.8,3.4,1.8,6.6,2.8,9.9c0.3,0.8,0.5,1.6,0.2,2.5
					c-4.5-9.4-5.8-19.1-3.7-29.4C381.2,310.2,382.1,306.8,384.2,303.7z"/>
			</g>
			<g>
				<path d="M386,511.6c-0.5-1.4,0.7-2.3,1.3-3.3c4.5-7.5,8.3-15.4,10.7-23.9c0.3-1,0.1-2.4,1.7-2.6c0.5,1-0.3,1.5-0.6,2.3
					C396.2,494,392.2,503.3,386,511.6z"/>
			</g>
			<g>
				<path d="M450.9,330c2.4-0.3,4.7-0.3,7,0.6c1.3,0.5,2.6,0.5,3.9,0.5c9.9,0,19.9,0.1,29.8,0.1c2.4,0,4.7,0.3,7,1
					c-0.8,0.7-1.7,0.5-2.6,0.2c-11.8-0.2-23.5-0.2-35.3-0.6C457.4,331.6,454.2,330.6,450.9,330z"/>
			</g>
			<g>
				<path d="M525.2,369.4c3,1.4,3.3,4.6,4.5,7.1c0.3,0.6,0.2,1.5,0.8,2.1c1.3-2.6,0.5-7.3-4.2-13.7c-0.3-0.4-0.3-0.8,0-1.2
					c3.3,3.5,5.2,7.7,5.7,12.5c0.7,4.7,0.4,6.5-1,8c-0.9-1,0.1-2.4-0.7-3.4C529.2,376.7,527.6,372.9,525.2,369.4z"/>
			</g>
			<g>
				<path d="M506.9,329.4c-3,0.8-5.6-1.4-8.5-1.2c-11.2-1.2-22.5-1.7-33.8-1.4c-1.1,0-2.3,0.3-3.4-0.3l0,0c-0.8-0.9-2.5,0.7-2.9-1.1
					c13.4,1.2,27-0.4,40.3,1.9C501.5,327.8,504.2,328.7,506.9,329.4z"/>
			</g>
			<g>
				<path d="M428,345.5c1.5-0.4,2.2,0.8,3.2,1.4c7.7,4.4,15.7,8.2,24.2,11c0.8,0.3,1.8-0.1,2.3,0.8c-3.2,0.4-5.9-1.1-8.6-2.2
					C441.8,353.5,434.6,350.2,428,345.5z"/>
			</g>
			<g>
				<path d="M448.1,314.5c-4.1,0.2-8.3-0.1-12.4-0.3c-0.3,0-0.7,0.1-1,0.1c0.3,0.3,0.6,0.6,0.9,0.9c-2.3,0.1-4.6,0.3-6.3-1.7
					c1.1-1.9,2.7-2.5,4.8-1.6c-1.3,0.8-1.3,1.4,0.3,1.5c4.4,0.3,8.9,0.7,13.3,0.4c3-0.2,6-0.2,9.1-0.3c0,1.3-1,0.8-1.6,0.9
					C452.7,314.4,450.4,314,448.1,314.5z"/>
			</g>
			<g>
				<path d="M468.6,339.9c-1.9-0.1-3.7-0.1-5.6-0.2c-0.7-0.5-1.4-0.2-2.2-0.3c-0.6-0.1-1.1-0.2-0.6-1c2.3-0.5,4.5,0.6,6.7,0.7
					c3.7,0,7.1,1.7,10.8,1.2c4.2,1,8.5,1,12.6,2.4c0.5,0.2,1.2,0.1,1.2,0.9c-4.2-0.6-8.4-1.1-12.6-1.7c-1.8-0.7-3.7-0.7-5.5-0.5
					C471.6,341.6,470,341.1,468.6,339.9z"/>
			</g>
			<g>
				<path d="M448.7,305.4c-8.9,2.9-17.9,3.3-26.8,0c5.7,1,11.5,0.9,17.3,1.1C442.5,306.6,445.5,305,448.7,305.4z"/>
			</g>
			<g>
				<path d="M473.8,315.8c0.2-0.3,0.4-0.8,0.7-0.9c6.4-1.5,12.9-2,19.4-0.1c0.2,0.1,0.3,0.6,0.5,0.9c-3.8-1.4-7.8-0.8-11.7-0.8
					C479.8,314.9,476.7,314.6,473.8,315.8z"/>
			</g>
			<g>
				<path d="M434,311.8c-2-0.6-3.3,0.7-4.8,1.6c-0.8,0-1.7,0.4-2.3-0.5c-0.2-0.3-0.2-0.6,0.1-0.8c9.1-1.7,18.5-0.7,27.4-3.9
					c0.3,0.2,0.3,0.4,0.1,0.7C447.8,311.3,441,312.2,434,311.8z"/>
			</g>
			<g>
				<path d="M402.9,436.9c-0.2-4.8-1.5-9.4-2.1-14.2c-0.5-4-1.9-7.8-2.9-11.7c-0.4-0.6-0.4-1.2,0.1-1.8c1.7,1.2,1.3,3.3,1.6,4.9
					c1.4,6.1,3.5,12,3.6,18.3C403.3,434,403.7,435.5,402.9,436.9z"/>
			</g>
			<g>
				<path d="M390,387.6c-2.1-0.7-1.7-2.8-2.3-4.3c-2.3-5.7-4.7-11.3-7.4-16.9c-0.2-0.5-0.1-1.1-0.1-1.7c3.1,5,5.1,10.6,7.4,16
					C388.5,383,389.2,385.3,390,387.6z"/>
			</g>
			<g>
				<path d="M439.6,336.8c3,0.9,6.1,1.8,9.1,2.7c0.7,0.1,1.4,0.1,2.2,0.2c1.3,0.5,2.8,0.3,4.1,1c0.5,0,1.1,0.1,1.6,0.1
					c1.9,0.5,3.9,0.4,5.8,1.1l0,0c0.7,0.9,2.5-0.7,2.9,1.2c-4.5,0.9-8.5-1.4-12.7-2.1c-4.4-0.7-8.8-1.8-12.9-3.7
					c-0.2-0.1-0.3-0.3-0.2-0.4C439.4,336.9,439.5,336.8,439.6,336.8z"/>
			</g>
			<g>
				<path d="M491.6,343.6c-4.3-2.3-9.4-1.4-13.8-3.3c0.4-0.6,0.9-0.6,1.5-0.4c5.7,1.8,11.8,1.9,17.5,4.1c1.6,0.6,3.5,1.1,5.3,1.5
					c1,0.2,2,0.6,2.4,1.7c-3.2-1.1-6.4-2.2-9.7-3.1C493.9,343.8,492.7,343.8,491.6,343.6z"/>
			</g>
			<g>
				<path d="M394.4,451.6c0.4-1.5,0.8-3,1.2-4.6c0.5-0.7,0.2-1.5,0.3-2.2c0.1-0.6-0.1-1.5,0.9-1.4c0.8,0.1,1,0.8,1,1.5
					c0.1,1.6,0,3.2,0,4.8c0,1.4-0.3,2.7-0.4,4.1c-0.1,0.9,0,2.1-1.3,2.4c-0.4-1.4,0.5-2.9-0.5-4.5c-1.1,0.7-0.6,2-1.2,2.7
					c-0.1-0.1-0.2-0.2-0.3-0.3C394.2,453.3,394,452.4,394.4,451.6z"/>
			</g>
			<g>
				<path d="M425.3,320.3c3.7,0.5,6.8,2.5,10.2,4c4.1,1.8,8.7,2.4,12.7,4.6c-2.2,1.2-3.8-0.7-5.5-1.3
					C436.6,325.7,430.7,323.6,425.3,320.3z"/>
			</g>
			<g>
				<path d="M434.4,332.8c-2.5-1.9-5.5-2.8-8.3-3.8c-1.3-0.5-2.1-1.9-3.7-1.9c-1.1-0.2-1.8-0.5-1.1-1.8c6,3.4,12.6,5.7,18.9,8.5
					c-0.3,0.4-0.8,0.4-1.2,0.2C437.4,334.2,436,333.2,434.4,332.8z"/>
			</g>
			<g>
				<path d="M452.6,402.5c3.2,4.2,3.9,9.3,4.6,14.3c0.6,4.3,0.4,8.7,0,13c-0.2,0.3-0.4,0.3-0.6,0c0.8-8.9-0.2-17.5-3.8-25.7
					C452.6,403.7,452.7,403.1,452.6,402.5z"/>
			</g>
			<g>
				<path d="M436.7,448.7c1.8,2,4,1.1,6,0.6c3.4-0.8,6.7-1.9,10-2.9c-2.1,2.6-5.4,3-8.3,3.7c-3,0.7-6.4,0.7-9.5-0.2
					c-0.2-0.6-1.6-0.4-0.9-1.2C434.7,447.8,435.8,448,436.7,448.7z"/>
			</g>
			<g>
				<path d="M435.5,420.1c1.7-5.4,1.5-10.8,0.3-16.4c-0.6-2.7-1.9-5.3-1.9-8.1c3.8,6.9,3.9,14.4,3.3,22c-0.1,1.5-1,3-1.5,4.5
					C435.1,421.4,435.3,420.8,435.5,420.1z"/>
			</g>
			<g>
				<path d="M396.2,456.2c1.4-1.9,1-4.1,1.2-6.3c0.5-1.7,0.1-3.5,0.2-5.3c0.1-1.4-0.7-1.7-1.9-1.6c0-0.7-0.1-1.3,0-2
					c0.1-0.7,0.4-1.3,1.2-1.4c0.9-0.1,1,0.6,1.1,1.3c1.1,4.8,0.5,9.6-0.3,14.3c-0.2,1.3,0.1,2.7-0.8,3.8c-0.5-0.3-0.2-0.9-0.6-1.2
					C396.3,457.3,396.2,456.7,396.2,456.2z"/>
			</g>
			<g>
				<path d="M415,358c-0.7-0.2-1.5-0.4-2.2-0.6c-3.4-3.4-6.9-6.7-10.2-10.2c-0.8-0.8-2-1.6-1.8-3.1C405.6,348.7,410.3,353.4,415,358
					z"/>
			</g>
			<g>
				<path d="M389.8,470.3c0.7-2.8,1.3-5.7,2.2-8.4c0.8-2.5,0-5.3,1.9-7.6c0.2-0.2,0.4-0.2,0.5,0.1c0.1,0.1,0.2,0.1,0.3,0
					c-1.1,5.9-2.6,11.6-4.6,17.2C389.5,471.2,389.6,470.8,389.8,470.3z"/>
			</g>
			<g>
				<path d="M476.1,287.1c0.1,0.7-0.3,1.3-0.8,1.7c-4.1,2.8-7.5,6.3-11.2,9.4c-1.1,0.9-2.3,2.1-3.9,2
					C465.6,296.1,470.3,291,476.1,287.1z"/>
			</g>
			<g>
				<path d="M409.8,300.3c-3,0.1-4.6-2.3-6.7-3.8c-2.3-1.6-4.4-3.5-6.6-5.4c-0.7-0.6-1.4-0.5-2.1-0.6c0.7-1.9,1.8-1.2,2.7-0.3
					C401,294.1,405.4,297.3,409.8,300.3z"/>
			</g>
			<g>
				<path d="M467,353.3c-4.1-0.9-8.1-1.7-12.2-2.7c-2.3-0.5-4.5-1.2-6.7-1.8c3-0.9,5.8,0.7,8.6,1.3c4.4,0.9,9,1.4,13.2,3.2
					C468.9,353.8,467.9,353.9,467,353.3z"/>
			</g>
			<g>
				<path d="M400.8,477.3c-0.2-2.8,0.2-5.4,1.2-8c1.2-3.3,0-6.9,1-10.3c0.4-1.3,0.7-2.7,1-4.1c0.8,0.6,0.4,1.3,0.3,2.1
					c0,0.9-0.1,1.7-0.1,2.6c-0.8,2.6-1,5.4-0.8,8.1c0.2,2.1-1.2,3.7-1.5,5.6l0,0c-0.7,1.3,0.2,2.8-0.5,4l0,0
					C401.1,477.5,401,477.5,400.8,477.3z"/>
			</g>
			<g>
				<path d="M448.1,314.5c1.9-0.7,3.8-0.2,5.8-0.5c1-0.1,2.1,0.3,2.9-0.6c3.9-1.5,8-1.7,12-2.3c-5,2.3-10.4,3.1-15.8,3.5
					C451.3,314.7,449.7,314.5,448.1,314.5z"/>
			</g>
			<g>
				<path d="M424.7,393.4c3.3,2.3,4.2,6,6.1,9.2c1.4,2.4,1.4,5.2,1.9,7.9c-0.2,0.3-0.4,0.3-0.6,0
					C431.3,404.1,427.8,398.8,424.7,393.4z"/>
			</g>
			<g>
				<path d="M501.1,419c1.1-6.3,0.7-12.6-1.1-18.8c0.2-0.3,0.4-0.3,0.5,0c2.3,6.6,3,13.3,0.6,20C500.9,419.8,500.9,419.4,501.1,419z
					"/>
			</g>
			<g>
				<path d="M398.6,318.5c2.8,3.1,5.5,6.1,8.3,9.2c0.6,0.7,1.5,1.3,1.3,2.4c-3.8-3.1-7.1-6.7-9.7-10.8
					C398.2,318.9,398.2,318.7,398.6,318.5z"/>
			</g>
			<g>
				<path d="M467,339.1c-2.3,0.5-4.5-1-6.9-0.5c-0.3,0.3-0.5,0.3-0.8,0c-3.4-0.6-6.8-0.8-10.2-1.7c-1-0.3-2.1-0.3-2.2-1.7
					C453.7,336,460.4,337.5,467,339.1z"/>
			</g>
			<g>
				<path d="M404.3,456.9c-0.1-0.7-0.2-1.4-0.3-2.1c0.2-6,0.2-12-1.1-17.9c0.1-1.5,0.1-2.9,0.2-4.4
					C404.6,440.6,405.1,448.7,404.3,456.9z"/>
			</g>
			<g>
				<path d="M457.9,401.9c-3-2.6-4.3-6.6-6.8-9.6c-1.2-1.4-2.6-2.7-3-4.6C452.3,391.8,455.6,396.5,457.9,401.9z"/>
			</g>
			<g>
				<path d="M446.9,335.2c3.3,1.9,7.1,1.8,10.6,2.8c0.7,0.2,1.4,0.4,2.2,0.6c-0.1,0.2-0.4,0.3-0.6,0.2c-1.3-0.1-2.7-0.1-4-0.2
					c-1.3-0.6-2.9,0.1-4-1.1c-0.4,0-0.8-0.1-1.1-0.1c-0.9-0.7-2,0.1-2.9-0.6c-1.3,0.1-2.3-0.6-3.4-1.1c-0.1-0.1-0.2-0.3-0.1-0.4
					c0.1-0.1,0.1-0.2,0.2-0.2C444.7,335.1,445.8,335.1,446.9,335.2z"/>
			</g>
			<g>
				<path d="M458.4,325.4c0.7,1,2.1,0.3,2.9,1.1c-6.1-0.3-12.1-1.2-17.9-3.2c0.2-0.4,0.6-0.5,0.9-0.2
					C449,324.1,453.6,325.1,458.4,325.4z"/>
			</g>
			<g>
				<path d="M384.2,466.3c0.6,4.4-2.2,7.9-3.6,11.7c-0.6,1.7-1.1,3.7-2.5,5c-0.5-0.4-0.5-0.8-0.1-1.2
					C380.5,476.9,382.2,471.6,384.2,466.3z"/>
			</g>
			<g>
				<path d="M392.8,480.8c-1.7,5.3-3,10.7-6.3,15.3c0.3-2.7,2.2-4.8,2.9-7.4c0.9-3.3,2.2-6.5,3.3-9.8
					C393.2,479.5,393.1,480.1,392.8,480.8z"/>
			</g>
			<g>
				<path d="M388.8,305.5c1.2-0.6,2.2-1.4,2.2-2.9c0.3-0.2,0.5-0.2,0.8,0c0.2,0.4,0.2,0.8-0.1,1.2c-0.5,1.9,2,2.6,1.8,4.5
					c-0.7,1,0.9,2.1-0.2,3.1c-1.5-0.9-1.5-2.7-2.3-4.1c-0.9-1.6-1.5-1.2-2.2,0C388.4,306.7,388.4,306.1,388.8,305.5z"/>
			</g>
			<g>
				<path d="M411.6,358c1,1.5,2.5,2.4,3.8,3.6c0.7,0.6,2,0.9,1.9,2.2c-4.3-2.7-7.8-6.2-11.5-9.6c-0.3-0.3-0.2-0.5,0.1-0.7
					C407.8,354.9,409.7,356.5,411.6,358z"/>
			</g>
			<g>
				<path d="M501.3,377.3c0.6,0.5,1.2,1,2.1,1.6c-0.6-1.9-1.1-3.4-1.7-4.9c-0.3-0.5-0.3-0.9,0.1-1.3c1.8,2.7,3,5.7,3,9.4
					c-2-1-2.5-2.8-3.6-4.1C500.9,377.7,501,377.5,501.3,377.3z"/>
			</g>
			<g>
				<path d="M401.5,309.4c-1.8-0.7-2.6-2.8-4.8-3.8c0.8,1.8,2.4,2.7,2.4,4.4c-1.9-1.5-3.1-3.4-4.1-5.5c-0.4-0.6-0.3-1.1,0.3-1.5
					c1.5-0.1,1.9,1,2.6,2C399.1,306.4,400.7,307.5,401.5,309.4z"/>
			</g>
			<g>
				<path d="M465.2,343.2c-0.7-1.1-2.1-0.3-2.9-1.2c3.9-0.3,7.5,0.1,10.8,2.4C470.5,344.3,467.7,344.8,465.2,343.2z"/>
			</g>
			<g>
				<path d="M380.1,382.6c0.1-0.3,0.1-0.5,0.2-0.8c1.9,4.8,4.1,9.6,3.8,15C382.8,392.1,381.5,387.4,380.1,382.6z"/>
			</g>
			<g>
				<path d="M526.3,363.7c0,0.4,0,0.8,0,1.2c-2.3-3.1-4.9-5.9-8-8.3c-0.9-0.7-2.1-1.3-2.2-2.7C520,356.6,523.7,359.6,526.3,363.7z"
					/>
			</g>
			<g>
				<path d="M386.5,323.2c-1.7-2.2-1.6-4.7-0.9-7.2c0.3-1.1,1-1.6,2.1-1.4c0.4,0.1,0.7,0.3,1,0.7c0.6,1.9,1.8,3.6,1.7,5.7
					c-0.1,0.3-0.3,0.5-0.5,0.6c-0.8-1.4-1.7-2.7-2-4.3c-0.1-0.5-0.3-1.3-1-1.2c-0.9,0.1-0.8,0.9-0.8,1.5c-0.1,1.5,0,3,0.5,4.4
					C386.8,322.4,386.8,322.8,386.5,323.2z"/>
			</g>
			<g>
				<path d="M492.7,369.9c0.2-0.1,0.5-0.5,0.6-0.4c3.2,1.8,6.3,3.7,7.9,7.3c-1.3,0.2-1.5-1.1-2.3-1.7
					C496.8,373.4,494.7,371.7,492.7,369.9z"/>
			</g>
			<g>
				<path d="M495.9,332.3c0.9-0.1,1.8-0.1,2.6-0.2c4.5,0.7,9.1,0.8,13.1,3.4c-0.2,0.4-0.5,0.4-0.8,0.2
					C506.1,333.5,500.8,333.7,495.9,332.3z"/>
			</g>
			<g>
				<path d="M410.4,340.9c-3-2.5-6.1-4.9-8.6-8c-0.2-0.3-0.2-0.6,0.1-0.8c2.8,2.5,5.7,5.1,8.5,7.6
					C410.8,340.1,410.8,340.5,410.4,340.9z"/>
			</g>
			<g>
				<path d="M451,368.2c2.4-0.3,4.2,1.4,6.2,2.3c2.4,1.1,4.9,2.1,6.9,4C459.5,372.9,455.3,370.4,451,368.2z"/>
			</g>
			<g>
				<path d="M432.3,422c-0.3,1.9,0.1,3.9-0.5,5.9c-0.3,0.8,0.6,0.3,0.9,0.3c0.4,0.8-0.2,1.2-0.7,1.7c-0.4,0.4-0.7,1.4-1.5,1.1
					c-1-0.4-0.6-1.4-0.3-2c1.7-2.7,0.5-6,1.8-8.8C432.6,420.7,432.4,421.4,432.3,422z"/>
			</g>
			<g>
				<path d="M460.7,306.1c1.4-1.9,3.6-2.5,5.5-3.8c1.8-1.2,3.5-2.5,5.3-3.7c0.3,0.2,0.3,0.4,0.1,0.7
					C468.3,302.1,464.9,304.7,460.7,306.1z"/>
			</g>
			<g>
				<path d="M471.6,299.3c0-0.2,0-0.5-0.1-0.7c3.4-2.7,6.6-5.7,10.3-8c0.3,0.2,0.3,0.4,0.1,0.7C478.5,294,475.3,297,471.6,299.3z"/>
			</g>
			<g>
				<path d="M435.6,344.8c-3.3-1.8-6.6-3.6-9.9-5.3c-0.4-0.2-0.9-0.4-1-0.9c3.7,1,6.6,3.5,10.1,4.8c1,0.4,2,1,3,1.4
					C437.1,345.3,436.3,345.2,435.6,344.8z"/>
			</g>
			<g>
				<path d="M388.7,339.1c-2.2-2.2-2.1-5.3-2.8-8c1.5-1,1.8,0.2,2.3,1.2c0.3,0.8,1.4,1.2,1.2,2.3c-1.3,0.3-1.9,1-1.2,2.3
					c0.1,0.4,0.1,0.9,0.6,1.1C389.1,338.4,389.1,338.8,388.7,339.1z"/>
			</g>
			<g>
				<path d="M385.3,346c1.8,0.3,1.8,2,2.5,3.2c1.4,2.1,2.6,4.4,3.8,6.6c-0.2,0.3-0.4,0.3-0.6,0C389,352.5,386.5,349.6,385.3,346z"/>
			</g>
			<g>
				<path d="M415.1,381.9c3.3,3.1,6.7,6.1,8.5,10.3c-2.9-3.2-5.7-6.4-8.6-9.6C414.7,382.3,414.8,382.1,415.1,381.9z"/>
			</g>
			<g>
				<path d="M456.7,429.9c0.2,0,0.4,0,0.6,0c-0.6,4.5-2.2,8.5-5.2,11.9c-0.2,0.3-0.4,0.3-0.6,0C454,438.2,455.5,434.1,456.7,429.9z"
					/>
			</g>
			<g>
				<path d="M393.4,325.9c2.2,2.6,5.2,4.7,6.1,8.2c-2.4-2.2-4.6-4.6-6.3-7.5C393,326.4,393.1,326.1,393.4,325.9z"/>
			</g>
			<g>
				<path d="M401.9,319.8c-2-1.3-2.8-3.7-4.6-5.2c-1.3-0.8-2.4-1.6-1.7-3.4c2.9,2.4,4.7,5.6,7,8.4
					C402.4,319.9,402.2,320,401.9,319.8z"/>
			</g>
			<g>
				<path d="M391.1,337.4c2.9,2.5,4.8,5.8,7.4,8.6c-0.2,0.3-0.5,0.4-0.7,0.1c-2.6-2.1-4.3-5.1-6.7-7.5
					C390.7,338.2,390.7,337.8,391.1,337.4z"/>
			</g>
			<g>
				<path d="M421.3,325.4c-0.1,0.9,0.7,1.2,1.1,1.8c0,0.2,0,0.4,0,0.6c-1.4,0.4-2.4-0.7-3.5-1.1c-0.8,0.2-1.1-0.5-1.6-0.7
					c-0.2-1.4,0.8-1.7,1.9-1.7C419.9,324.6,420.6,325,421.3,325.4z"/>
			</g>
			<g>
				<path d="M402,332.1c0,0.3-0.1,0.5-0.1,0.8c-2.7-2.7-5.6-5.1-7.4-8.6c0.2-0.3,0.5-0.4,0.8-0.1C397.5,326.8,399.7,329.5,402,332.1
					z"/>
			</g>
			<g>
				<path d="M410.4,340.9c0-0.4,0-0.8,0-1.2c2.9,1.4,4.8,4.2,7.9,5.2c0.4,0.2,0.4,0.6,0.2,1C415.7,344.5,412.8,343,410.4,340.9z"/>
			</g>
			<g>
				<path d="M395.8,303.1c-0.6,0.3-0.7,0.8-0.8,1.4c-0.1-0.1-0.3-0.1-0.4-0.2c-0.9-0.8-1.4-2.3-3.1-1.7c-0.2,0-0.4,0-0.5,0
					c0.5-1.5,2-2,2.8-3.3c0.3-0.5,1.4-1.1,1.9,0.3c-0.2,0.1-0.4,0.2-0.7,0.2c-0.7,0.6-0.4,1.1,0,1.7l0,0
					C395.4,302,395.9,302.4,395.8,303.1z"/>
			</g>
			<g>
				<path d="M520.1,340.8c2-0.8,2.6,1.1,3.9,1.8c1,0.6,1.3,2.6,3,1.5c0.2,0,0.3,0,0.5,0.1c0.4,0.5,0.6,1.1,0.1,1.5
					c-0.7,0.6-1.2-0.1-1.7-0.4C523.9,343.9,522,342.3,520.1,340.8z"/>
			</g>
			<g>
				<path d="M435.6,344.8c0.8,0,1.5,0,2.3,0c2.5,1.6,5.4,2.3,8.1,3.3C442,348.6,438.9,346.5,435.6,344.8z"/>
			</g>
			<g>
				<path d="M517.7,334.6c-3.1-1.8-6.8-2.4-9.6-4.7c2.6,0.4,4.9,1.4,7.2,2.6C516.3,333,517.5,333.2,517.7,334.6z"/>
			</g>
			<g>
				<path d="M396.3,457.9c0.2,0.4,0.4,0.8,0.6,1.2c0.4,4.5-0.7,8.8-1.7,13.1c-0.6-0.8-0.4-1.7-0.2-2.5c0-0.7,0.1-1.4,0.1-2.1
					c0.8-1.9,0.8-3.9,1-5.8C396.2,460.5,396.2,459.2,396.3,457.9z"/>
			</g>
			<g>
				<path d="M401.9,473.2c1.6-4.4,0.5-9.3,2.3-13.7C403.2,464.1,404.8,469,401.9,473.2z"/>
			</g>
			<g>
				<path d="M419.7,276.4c-0.2-0.1-0.5-0.1-0.7-0.2c2.8-2,6-3.4,9.3-4.4C425.6,273.8,422.7,275.1,419.7,276.4z"/>
			</g>
			<g>
				<path d="M432.3,422c-0.1-0.6-0.1-1.2-0.2-1.8c0.7-3.2,0.5-6.4-0.1-9.6c0.2,0,0.4,0,0.6,0C433.7,414.4,433.9,418.2,432.3,422z"/>
			</g>
			<g>
				<path d="M396.9,339.6c-2.6-2.4-5.1-4.9-5.8-8.6C393.2,333.8,395.5,336.4,396.9,339.6z"/>
			</g>
			<g>
				<path d="M498.9,410.5c0,0.4,0.1,0.7,0.1,1.1c0.3,3.5,0.4,6.9-0.1,10.3l0,0c-0.3,0.2-0.5,0.2-0.8-0.1c-0.1-0.4-0.1-0.9,0.1-1.3
					c0.2-4.3-0.1-8.6-0.6-12.9c0.2-0.2,0.4-0.2,0.6,0l0,0C499,408.5,498.3,409.6,498.9,410.5z"/>
			</g>
			<g>
				<path d="M487.1,359c-3.5-0.7-6.6-2.7-10.2-2.9c-0.5-0.3-0.4-0.7-0.1-1C480.3,356,484,356.7,487.1,359z"/>
			</g>
			<g>
				<path d="M419.6,312.3c-1.8,0.3-2.7-1.5-4.3-1.6c-0.3,0-0.6-0.4-0.5-0.8c0.1-0.6,0.7-0.6,1.1-0.6c1.6-0.1,3.1,0.5,4.5,1.2
					c-0.5,0.5-1.6-0.3-1.8,0.5C418.3,311.3,419.2,311.9,419.6,312.3z"/>
			</g>
			<g>
				<path d="M483,386c2.8,2.2,5.2,4.7,7.4,7.3c0.2,0.3,0.2,0.5-0.1,0.7c-2.5-2.5-5-4.9-7.4-7.4C482.6,386.4,482.6,386.2,483,386z"/>
			</g>
			<g>
				<path d="M476.7,355c0,0.3,0.1,0.7,0.1,1c-2.7-0.7-5.4-1.4-8.1-2.1c-0.6-0.2-1.3,0-1.7-0.7c0.9,0,1.9,0,2.8,0
					C472.1,353.9,474.4,354.5,476.7,355z"/>
			</g>
			<g>
				<path d="M401.9,336.3c3,1.8,5.6,4.2,8,6.9C406.7,341.4,404.1,339.1,401.9,336.3z"/>
			</g>
			<g>
				<path d="M381.9,488.1c0.7-3,3-5.2,3.9-8.1c0.4,0.2,0.4,0.5,0.2,0.8c-0.3,2.5-1.9,4.5-2.9,6.7
					C382.7,487.8,382.6,488.5,381.9,488.1z"/>
			</g>
			<g>
				<path d="M395.6,351.7c-1.8-2.3-3.9-4.4-4.5-7.4c0.2-0.3,0.4-0.3,0.6,0c1.5,2.5,3.1,4.9,4.6,7.4C396.1,352,395.8,352,395.6,351.7
					z"/>
			</g>
			<g>
				<path d="M503.5,318c-1.8-3-5-4.5-7.4-6.9c3.2,1,5.5,3.1,7.4,5.8C503.8,317.3,503.8,317.7,503.5,318z"/>
			</g>
			<g>
				<path d="M388.8,305.5c0,0.6,0,1.2,0,1.8c-1.9,2.1-0.4,4.1,0,6.1c-0.1,0.1-0.2,0.1-0.3,0.2c-0.8,0-0.5-1-1-1.3
					C385.7,309.6,387.4,307.6,388.8,305.5z"/>
			</g>
			<g>
				<path d="M444.3,323.1c-0.3,0.1-0.6,0.2-0.9,0.2c-2.9-1-6.1-1.2-8.4-3.6C438.2,320.7,441.4,321.6,444.3,323.1z"/>
			</g>
			<g>
				<path d="M395.6,351.7c0.2,0,0.5,0,0.7-0.1c2,1.6,3.3,3.9,5,5.8c0.3,0.3,0.2,0.5-0.1,0.6C398.8,356.4,397.3,354,395.6,351.7z"/>
			</g>
			<g>
				<path d="M444.6,384.4c-1.7-2.4-5.2-3.3-6.2-6.4c2.5,1.5,4.4,3.6,6.3,5.7C445,384,444.9,384.2,444.6,384.4z"/>
			</g>
			<g>
				<path d="M433.1,377.4c0.2,0,0.5,0,0.7-0.1c2.1,2.1,4.6,3.7,6.2,6.3c-0.4,0.3-0.7,0.3-1-0.1C437.2,381.5,434.8,379.8,433.1,377.4
					z"/>
			</g>
			<g>
				<path d="M404.1,307.2c2.9,1.1,5.2,3.1,7.4,5.2C408.7,311.2,406.2,309.6,404.1,307.2z"/>
			</g>
			<g>
				<path d="M415.1,381.9c0,0.2,0,0.4-0.1,0.7c-2.2-2.2-4.7-4.1-6.4-6.8C411.2,377.3,413,379.7,415.1,381.9z"/>
			</g>
			<g>
				<path d="M397.9,409.3c0,0.6,0,1.2-0.1,1.8c-1.1-2.6-2.2-5.2-2.2-8.1C397,404.9,397.6,407,397.9,409.3z"/>
			</g>
			<g>
				<path d="M412.2,329.9c-1-0.7-1.9-1.5-2.9-2.2c-0.9-0.6-1.6-1.4-2.3-2.2c-0.5-0.3-1-0.7-1-1.4c3,0.5,4.2,3.4,6.3,5.1
					c0.2,0.2,0.2,0.3,0.1,0.4C412.3,329.8,412.3,329.9,412.2,329.9z"/>
			</g>
			<g>
				<path d="M395.6,311.2c0,1.4,1.2,2.2,1.7,3.4c-0.2,0.2-0.4,0.4-0.5,0.5c-1.1,0.4-1.2-0.8-1.8-1.1l0,0c-0.3-0.9-0.8-1.7-1.1-2.5
					c-0.2-0.6-0.7-1.7,0.8-1.7C395,310.4,395.3,310.8,395.6,311.2z"/>
			</g>
			<g>
				<path d="M527,344.2c-2.4-1.2-2.6-4.2-4.6-5.7c0.2-0.3,0.5-0.4,0.7-0.1C525.1,339.9,526.4,341.8,527,344.2z"/>
			</g>
			<g>
				<path d="M428.6,370.5c-0.3-0.6-0.7-1.2-1-1.8c2.2,1.2,4,2.8,5.7,4.6C431.6,372.8,429.9,372.1,428.6,370.5z"/>
			</g>
			<g>
				<path d="M500.6,400.2l-0.3,0c0,0-0.3,0-0.3,0c-1.2-2.2-2.5-4.4-2.8-6.9C499,395.3,499.9,397.7,500.6,400.2z"/>
			</g>
			<g>
				<path d="M386.5,323.2c0-0.4,0-0.8,0-1.1c1.5,2.1,2.6,4.4,3.5,6.8C387.8,327.5,387.4,325.2,386.5,323.2z"/>
			</g>
			<g>
				<path d="M498.4,368.2c-1.3-2.2-3.9-3.4-5.1-5.7c2.5,1.3,4.4,3.2,5.9,5.6C498.9,368.5,498.6,368.5,498.4,368.2z"/>
			</g>
			<g>
				<path d="M381.4,517.8c1-2.5,2.4-4.7,4.6-6.3C384.9,514,383.6,516.2,381.4,517.8z"/>
			</g>
			<g>
				<path d="M498.5,422c0.1-0.1,0.3-0.1,0.4-0.1c0.2,0.6,0.5,1.5,1,0.3c0.4-1.1,0.4-2.3,1.2-3.2c0,0.4,0.1,0.9,0.1,1.3
					c-0.4,1.1-0.3,2.4-1.2,3.4c-1.3,1.9-1.3,1.9-2,0.9C498.3,423.7,497.7,422.7,498.5,422z"/>
			</g>
			<g>
				<path d="M429.9,447.6c2.9,0,5.7,0,8.6,0c0.2,0.3,0.1,0.5-0.2,0.8c-0.6,0.1-1.2,0.1-1.8,0.1c-1,0.1-2-0.2-3,0.2
					c-1.1,0.3-2.3,0.2-3.3,0.9C428.3,449.2,428.7,448.5,429.9,447.6z"/>
			</g>
			<g>
				<path d="M424.7,381.4c-2.3-1.4-4.1-3.2-5.1-5.7C421.6,377.3,423.5,379,424.7,381.4z"/>
			</g>
			<g>
				<path d="M394.6,309.9c-0.9,0.5-0.8,1.2-0.3,1.9c0.5,0.7,0.9,1.4,0.6,2.3c-0.9-0.7-1.4-1.8-1.7-2.9c0.7-1-2-2.2,0.2-3.1
					C393.9,308.8,394.3,309.3,394.6,309.9z"/>
			</g>
			<g>
				<path d="M498.4,407.6c-0.2,0-0.4,0-0.6,0c-1.5-1.6-1.2-3.9-2.3-5.7c-0.3-0.3-0.2-0.6,0.2-0.8
					C496.9,403.2,497.9,405.3,498.4,407.6z"/>
			</g>
			<g>
				<path d="M444.1,364.8c2.6,0.5,5.1,1.2,6.9,3.4C448.5,367.6,446.2,366.3,444.1,364.8z"/>
			</g>
			<g>
				<path d="M415.1,371c-2.3-0.4-3.2-2.5-4.7-3.9c-0.2-0.3-0.2-0.5,0.1-0.7C412.2,367.8,414.1,368.9,415.1,371z"/>
			</g>
			<g>
				<path d="M498.4,368.2c0.2,0,0.5,0,0.7-0.1c1.5,1.2,2.3,2.7,2.8,4.5c0,0.4-0.1,0.9-0.1,1.3C500.6,372.1,499.5,370.1,498.4,368.2z
					"/>
			</g>
			<g>
				<path d="M451.4,441.8c0.2,0,0.4,0,0.6,0c-1.1,2.1-3.1,3.1-5.1,4c-0.2-0.1-0.2-0.3-0.2-0.4c0.1-0.1,0.1-0.2,0.2-0.2
					C448.4,444,449.9,442.9,451.4,441.8z"/>
			</g>
			<g>
				<path d="M495.7,401.2c-0.1,0.3-0.1,0.5-0.2,0.8c-1.3-2.1-2.6-4.2-3.9-6.4c0.4-0.3,0.7-0.3,1,0
					C493.6,397.5,494.7,399.3,495.7,401.2z"/>
			</g>
			<g>
				<path d="M389.8,470.3c0.1,0.4,0.1,0.9,0.2,1.3c-0.4,1.1-0.8,2.2-1.1,3.4c-0.4,0.3-0.5,1-1.2,0.6
					C388.3,473.8,388.3,471.8,389.8,470.3z"/>
			</g>
			<g>
				<path d="M394.9,314.1c0.6,0.4,1.2,0.7,1.8,1.1c0.2,1.4,1.3,2.2,1.8,3.4c0,0.2-0.1,0.5-0.1,0.7
					C396.7,317.9,395.8,316,394.9,314.1z"/>
			</g>
			<g>
				<path d="M400.8,477.3c0.2,0,0.4,0,0.6,0c-1.1,2.2,0.1,5.1-2.2,6.9c-0.3-0.9,1-1.4,0.6-2.3C400.2,480.4,399.9,478.7,400.8,477.3z
					"/>
			</g>
			<g>
				<path d="M443.6,335c0,0.2,0,0.4,0,0.6c-1.8,0.3-3.1-1-4.5-1.6c0.4-0.1,0.8-0.1,1.2-0.2C441.6,333.6,442.6,334.4,443.6,335z"/>
			</g>
			<g>
				<path d="M417.9,349.4c2.1,0.6,4.1,1.4,5,3.6C421.2,351.9,419.3,351,417.9,349.4z"/>
			</g>
			<g>
				<path d="M391.6,344.3c-0.2,0-0.4,0-0.6,0c-0.8-1.7-1.5-3.4-2.3-5.1c0-0.4,0-0.8,0-1.1C389.8,340,391,342,391.6,344.3z"/>
			</g>
			<g>
				<path d="M384.3,500.1c-0.6,2.3-1.8,4.1-3.5,5.7C381.4,503.6,382.5,501.7,384.3,500.1z"/>
			</g>
			<g>
				<path d="M387.6,475.5c0.4-0.2,0.8-0.4,1.2-0.6c-0.9,2-1.2,4.3-2.8,5.9c-0.1-0.3-0.1-0.5-0.2-0.8
					C386.9,478.7,386.8,477,387.6,475.5z"/>
			</g>
			<g>
				<path d="M429.9,447.6c-0.4,0.7-1.1,1.6,0.5,1.7c0.6-0.6,1.4-0.6,2.2-0.5c0.5,0.2,0.8,0.4,0.8,1c-1.2,0-2.4,0.1-3.6,0
					c-0.8,0-1.5-0.4-1.5-1.3C428.3,447.4,429.2,447.6,429.9,447.6z"/>
			</g>
			<g>
				<path d="M393.4,325.9c0,0.3-0.1,0.5-0.1,0.8c-1.7-1.4-2.6-3.3-3.5-5.2c0.1,0,0.2-0.1,0.3-0.1c2.2,0.4,2.3,2.6,3.3,4
					C393.3,325.6,393.4,325.8,393.4,325.9z"/>
			</g>
			<g>
				<path d="M525.8,345.4c0.9,0.1,1.8,0.4,1.6-1.1c0.6,0.1,0.6,0.6,0.8,1c0.3,0.6,0.8,1.2,0.3,1.8c-0.6,0.6-1.2-0.1-1.7-0.5
					C526.4,346.3,526.1,345.8,525.8,345.4z"/>
			</g>
			<g>
				<path d="M399.1,303c2.2,0,3.2,1.4,3.9,3.1C401.2,305.7,400.3,304.2,399.1,303z"/>
			</g>
			<g>
				<path d="M483,386c0,0.2,0,0.5-0.1,0.7c-1.7-1-3.3-2.1-4.6-3.5C480.5,383,481.4,385,483,386z"/>
			</g>
			<g>
				<path d="M429.3,387.6c-1.8-0.8-2.7-2.2-3.5-3.9c0.2-0.3,0.5-0.4,0.8-0.2C427.7,384.8,428.6,386.1,429.3,387.6z"/>
			</g>
			<g>
				<path d="M443,387.7c1.7,1.1,3.2,2.4,3.4,4.6C444.9,391,443.7,389.5,443,387.7z"/>
			</g>
			<g>
				<path d="M390,315.6c0.6,1.6,2.1,2.7,2.3,4.5c0.2,0.3,0.2,0.5,0,0.8c-2.2-0.8-2.8-2.5-2.8-4.6C389.6,316,389.7,315.8,390,315.6z"
					/>
			</g>
			<g>
				<path d="M498.3,424.7c1.1,0.3,0.8-1.3,1.7-1.1c-0.1,1.4-1.3,2.2-1.8,3.4c-1.3,0.5-1.5-0.1-1.1-1.2c0-0.4-0.2-0.9,0.4-1.2
					C497.9,424.4,498.1,424.4,498.3,424.7z"/>
			</g>
			<g>
				<path d="M418.9,326.6c1.3,0.1,2.4,0.6,3.5,1.1c0.2,0.7,1.2,1,1.1,1.9C421.9,328.8,420.2,328.1,418.9,326.6z"/>
			</g>
			<g>
				<path d="M439.1,383.6c0.3,0,0.7,0,1,0.1c0.8,1.5,2.7,2.1,2.8,4C441.4,386.6,440.1,385.3,439.1,383.6z"/>
			</g>
			<g>
				<path d="M495.1,389.8c-1.9-1-3-2.5-3.5-4.6C493.1,386.5,494.3,388,495.1,389.8z"/>
			</g>
			<g>
				<path d="M503.5,318c0-0.4,0-0.8,0-1.2c1,0.6,1.4,1.7,1.9,2.7c0.2,0.5,0.7,1.1,0.1,1.4c-0.4,0.2-1.1-0.1-1.4-0.6
					C505.1,319.2,503.7,318.8,503.5,318z"/>
			</g>
			<g>
				<path d="M392.8,480.8c0-0.6-0.1-1.3-0.1-1.9c0.1-1.4,0.4-2.8,1.1-4C394.3,477,393.6,478.9,392.8,480.8z"/>
			</g>
			<g>
				<path d="M497.7,428.1c0.1,1.3-1.3,1.7-1.9,3.1c-0.5-1.7,0.4-2.6,0.7-3.7C497.1,427.6,497.5,427.7,497.7,428.1z"/>
			</g>
			<g>
				<path d="M380.3,492.2c-0.1-0.2-0.2-0.5-0.2-0.7c0.6-1.1,1.3-2.2,1.9-3.4c0.4-0.2,0.8-0.4,1.1-0.6
					C382.4,489.2,381.5,490.8,380.3,492.2z"/>
			</g>
			<g>
				<path d="M427.1,368.2c-1.9-0.5-3.1-1.8-4.1-3.3C424.8,365.5,425.9,366.8,427.1,368.2z"/>
			</g>
			<g>
				<path d="M444.6,384.4c0-0.2,0.1-0.5,0.1-0.7c1.4,1.1,2.6,2.4,3.4,4C446.2,387.3,445.6,385.7,444.6,384.4z"/>
			</g>
			<g>
				<path d="M435.5,420.1c0.1,0.7,0.1,1.3,0.2,2c0,1.6-1,2.7-1.7,3.9C433.8,423.8,435.2,422.1,435.5,420.1z"/>
			</g>
			<g>
				<path d="M430.4,318c-1.7-0.4-3.5-0.6-4.5-2.3C427.5,316.3,429.4,316.4,430.4,318z"/>
			</g>
			<g>
				<path d="M405.9,353.4c0,0.2,0,0.5-0.1,0.7c-1.6-0.8-2.8-2.1-3.9-3.6c0.2-0.2,0.4-0.3,0.6-0.1
					C403.7,351.4,404.8,352.4,405.9,353.4z"/>
			</g>
			<g>
				<path d="M427.1,312.3c0,0.3-0.1,0.5-0.1,0.8c-1.4-0.9-3.4-0.8-4.5-2.4C424.1,310.8,425.5,311.7,427.1,312.3z"/>
			</g>
			<g>
				<path d="M407,363.7c-1-1.1-2.5-1.8-2.8-3.4c1.4,0.9,2.5,2,3.5,3.3C407.4,363.9,407.2,363.9,407,363.7z"/>
			</g>
			<g>
				<path d="M395.2,361.3c1.8,0.5,2.9,1.7,3.3,3.5C397,364,396.1,362.7,395.2,361.3z"/>
			</g>
			<g>
				<path d="M407,363.7c0.2,0,0.4-0.1,0.7-0.1c1,0.9,1.9,1.9,2.9,2.8c0,0.2,0,0.5-0.1,0.7C409.1,366.2,407.9,365.1,407,363.7z"/>
			</g>
			<g>
				<path d="M412.2,329.9c0-0.2,0-0.4,0-0.7c1.1,1,2.3,1.9,3.4,2.9c0.3,0.2,0.3,0.5,0,0.6C414.2,332.1,413.3,330.9,412.2,329.9z"/>
			</g>
			<g>
				<path d="M392.2,320.9c0-0.3,0.1-0.5,0.1-0.8c1.3,1.2,2.2,2.6,2.9,4.1c-0.3,0-0.5,0.1-0.8,0.1c-0.2-0.2-0.4-0.4-0.5-0.6
					C392.7,323.1,391.8,322.4,392.2,320.9z"/>
			</g>
			<g>
				<path d="M497.8,316.9c1.8,0.3,3.4,0.8,4.5,2.4C500.7,318.7,499,318.3,497.8,316.9z"/>
			</g>
			<g>
				<path d="M433.4,449.8c-0.2-0.2-0.4-0.4-0.7-0.5c-0.3-0.7,0.2-0.8,0.6-1c1.1,0,2.3,0,3.4,0c0.2,0.1,0.2,0.2,0.2,0.4
					c-0.1,0.1-0.1,0.2-0.2,0.2c0,0,0,0,0,0c-0.5,0.5-2.6-1.3-1.8,1.2C434.5,449.9,433.9,449.8,433.4,449.8z"/>
			</g>
			<g>
				<path d="M396.1,461.8c0.4,2.1,0.2,4-1,5.8C394.9,465.5,395.8,463.7,396.1,461.8z"/>
			</g>
			<g>
				<path d="M395,469.7c0.1,0.8,0.1,1.7,0.2,2.5c-0.4,0.9-0.3,2.1-1.3,2.8C393.5,473,394.6,471.4,395,469.7z"/>
			</g>
			<g>
				<path d="M418.6,345.9c-0.1-0.3-0.1-0.7-0.2-1c1.3,0.8,2.9,1.2,3.5,2.8C420.5,347.6,419.7,346.4,418.6,345.9z"/>
			</g>
			<g>
				<path d="M391.5,302.6c2-1.3,2.5,0.3,3.1,1.7c-1-0.1-1.6-2.2-3-0.5C391.6,303.3,391.6,303,391.5,302.6z"/>
			</g>
			<g>
				<path d="M395.8,303.1c-0.2-0.5-0.5-1.1-0.7-1.6c1.3,0.9,2.7,1.7,2.8,3.5C397.2,304.3,396.5,303.7,395.8,303.1z"/>
			</g>
			<g>
				<path d="M402.6,350.4c-0.2,0-0.4,0.1-0.6,0.1c-0.8-0.7-1.5-1.5-2.3-2.2c-0.3-0.3-0.2-0.5,0.1-0.7
					C401,348.2,401.7,349.3,402.6,350.4z"/>
			</g>
			<g>
				<path d="M446.9,445.2c0,0.2,0,0.4,0,0.6c-0.9,0.5-1.7,1.2-2.8,1.3c-0.4,0.3-0.7,0.3-1.1,0.1c-0.2-0.2-0.2-0.5,0-0.7
					C444.5,446.6,445.5,445.1,446.9,445.2z"/>
			</g>
			<g>
				<path d="M510.8,335.7c0.3-0.1,0.5-0.1,0.8-0.2c1,0.4,2.5,0.2,2.7,1.9C513,337.2,512,336.4,510.8,335.7z"/>
			</g>
			<g>
				<path d="M454.5,309c0-0.2,0-0.5-0.1-0.7c1.3-0.6,2.6-1.3,4.1-1.1C457.4,308.4,455.8,308.5,454.5,309z"/>
			</g>
			<g>
				<path d="M401.9,319.8c0.2,0,0.5-0.1,0.7-0.1c0.6,0.6,1.1,1.1,1.7,1.7c0.2,0.3,0.2,0.5-0.2,0.7
					C402.7,321.9,402.5,320.7,401.9,319.8z"/>
			</g>
			<g>
				<path d="M523.1,338.5c-0.2,0-0.5,0.1-0.7,0.1c-0.8-0.8-1.5-1.5-2.3-2.3c0.2-0.3,0.5-0.3,0.8-0.1
					C521.8,336.7,522.7,337.3,523.1,338.5z"/>
			</g>
			<g>
				<path d="M497.3,393.3c-1.3-0.8-2.1-1.9-2.2-3.5C496.4,390.6,496.7,392,497.3,393.3z"/>
			</g>
			<g>
				<path d="M508.6,356.3c1.6,0.1,2.7,0.9,3.5,2.2C510.7,358.2,509.5,357.4,508.6,356.3z"/>
			</g>
			<g>
				<path d="M401.2,358c0-0.2,0.1-0.4,0.1-0.6c1.1,0.8,2.2,1.6,2.8,2.9C402.7,360.2,402.1,358.9,401.2,358z"/>
			</g>
			<g>
				<path d="M515.4,286.7c0.2-0.4,0.4-0.7,0.6-1.1c1,0.2,1.5,0.8,1.6,1.9C516.6,287.8,516,287.3,515.4,286.7z"/>
			</g>
			<g>
				<path d="M443.1,446.5c0,0.2-0.1,0.3-0.1,0.5c-0.3,0.5-0.9,0.8-1.4,1c-0.9,0.2-1.8,0.4-2.5-0.4
					C440.3,446.9,441.6,446.4,443.1,446.5z"/>
			</g>
			<g>
				<path d="M439.6,336.8c0,0.2,0,0.4,0,0.6c-1.3-0.3-2.5-0.7-3.5-1.7C437.4,335.5,438.5,336.2,439.6,336.8z"/>
			</g>
			<g>
				<path d="M391,355.7c0.2,0,0.4,0,0.6,0c0.6,1,1.8,1.5,1.7,2.9C392.1,358,391.5,356.9,391,355.7z"/>
			</g>
			<g>
				<path d="M388.2,336.9c-0.5-1.2-1.4-2.7,1.2-2.3c0,0.4,0,0.7,0,1.1C388,335,388.4,336.3,388.2,336.9z"/>
			</g>
			<g>
				<path d="M498.9,375.1c1.1,0.1,1.3,1.4,2.3,1.7c0,0.2,0.1,0.3,0.1,0.4c0,0.2-0.1,0.5-0.1,0.7
					C500.2,377.2,499.2,376.4,498.9,375.1z"/>
			</g>
			<g>
				<path d="M497.7,428.1c-0.5,0.1-0.9-0.1-1.1-0.5c0.1-0.6-0.1-1.3,0.6-1.7c0,0.7,0.3,1.2,1.1,1.2
					C498.1,427.4,497.9,427.7,497.7,428.1z"/>
			</g>
			<g>
				<path d="M404.1,322c0.1-0.2,0.1-0.5,0.2-0.7c0.8,0.6,1.9,1,1.6,2.4C405,323.4,404.4,322.9,404.1,322z"/>
			</g>
			<g>
				<path d="M520.8,336.2c-0.3,0-0.5,0.1-0.8,0.1c-0.8-0.6-1.5-1.1-2.3-1.7C519.2,334.2,520,335.3,520.8,336.2z"/>
			</g>
			<g>
				<path d="M391.1,337.4c0,0.4,0,0.8,0,1.1c-0.8-0.8-1.7-1.6-1.7-2.9C390.4,335.8,390.6,336.8,391.1,337.4z"/>
			</g>
			<g>
				<path d="M498.3,424.7c-0.3,0-0.5-0.1-0.8-0.1c0.2-1.4,0.5-2.7,0.7-4.1c0.1,0.5,0.1,1,0.2,1.5
					C498.5,422.9,498.4,423.8,498.3,424.7z"/>
			</g>
			<g>
				<path d="M492.6,395.7c-0.3,0-0.7,0-1,0c-0.4-0.5-0.8-1-1.3-1.5c0-0.2,0.1-0.5,0.1-0.7C491.1,394.1,491.9,394.9,492.6,395.7z"/>
			</g>
			<g>
				<path d="M426.6,383.6c-0.3,0-0.5,0.1-0.8,0.2c-0.6-0.7-1.2-1.4-1.1-2.4C425.7,381.8,426.2,382.6,426.6,383.6z"/>
			</g>
			<g>
				<path d="M401.3,477.3c0.1-1.4-0.2-2.7,0.5-4C402,474.6,402.4,476,401.3,477.3z"/>
			</g>
			<g>
				<path d="M399.7,347.6c0,0.2-0.1,0.5-0.1,0.7c-0.9-0.5-1.5-1.3-1.9-2.3c0.2,0,0.5,0,0.7-0.1C398.9,346.5,399.3,347.1,399.7,347.6
					z"/>
			</g>
			<g>
				<path d="M481.9,291.3c0-0.2,0-0.5-0.1-0.7c0.5-0.4,1.1-0.8,1.6-1.2c0.3,0.1,0.5,0.1,0.8,0.2C483.6,290.4,482.9,291,481.9,291.3z
					"/>
			</g>
			<g>
				<path d="M422.5,368.2c1.1,0.1,1.8,0.7,2.2,1.8C423.6,369.8,423,369.1,422.5,368.2z"/>
			</g>
			<g>
				<path d="M411.7,321.9c1.1,0.1,1.7,0.9,2.3,1.7C412.8,323.7,412,323,411.7,321.9z"/>
			</g>
			<g>
				<path d="M415,336.3c1.2,0,1.9,0.7,2.3,1.8C416.2,337.8,415.5,337.3,415,336.3z"/>
			</g>
			<g>
				<path d="M415.6,332.8c0-0.2,0-0.4,0-0.6c1,0.3,1.7,0.9,2.3,1.8C416.8,334.2,416.4,333.2,415.6,332.8z"/>
			</g>
			<g>
				<path d="M439,447.6c0.9,0,1.8-0.1,2.7-0.1c0.2,0.1,0.3,0.3,0.2,0.4c0,0.2-0.1,0.3-0.1,0.3l0,0c-1.2,0.5-2.3,0.5-3.5-0.1
					c0.1-0.1,0.1-0.3,0.1-0.5C438.6,447.6,438.8,447.6,439,447.6z"/>
			</g>
			<g>
				<path d="M399.1,341.9c-1.1-0.3-1.7-1-1.8-2.1C398.2,340.2,399,340.8,399.1,341.9z"/>
			</g>
			<g>
				<path d="M395,301.5c-1.2-1.2-1.2-1.2,0-1.7C395,300.3,395,300.9,395,301.5z"/>
			</g>
			<g>
				<path d="M388.9,313.4c0.4,0.8,0.7,1.5,1.1,2.3c0,0.1-0.1,0.2-0.2,0.3c-0.9,0-1.2-0.6-1.4-1.2c-0.1-0.4,0-0.8,0.3-1.1
					L388.9,313.4z"/>
			</g>
			<g>
				<path d="M395.7,443.1c0.3-0.5,0.7-1,1.2-1.8c1.4,3,1.3,5.8,0.5,8.6c0-2,0-4,0-6.5c-1.8,1.2-0.7,2.8-1.8,3.6
					C395.6,445.7,395.7,444.4,395.7,443.1z"/>
			</g>
			<g>
				<path d="M394.3,454.4c-0.2,0-0.3,0-0.5-0.1c0.2-0.9-0.2-2,0.6-2.8C394.4,452.5,394.3,453.5,394.3,454.4z"/>
			</g>
			<g>
				<path d="M461.3,326.5c12.2-0.2,24.5-0.1,36.6,1.4c0.2,0,0.3,0.2,0.5,0.3c-3.6,0.4-7.2-0.1-10.7-0.5c-7.8-1-15.7-0.4-23.5-0.6
					C463.2,327.1,462.1,327.5,461.3,326.5z"/>
			</g>
			<g>
				<path d="M388.2,332.3c-0.6-0.8-1.2-1.4-2.3-1.2c0-0.8,0.4-1.2,1.2-1C388.2,330.4,388.3,331.3,388.2,332.3z"/>
			</g>
			<g>
				<path d="M388.7,313.5c0,0.4,0,0.8,0,1.2c-0.1,0.2-0.3,0.4-0.5,0.5c-0.2-0.2-0.4-0.4-0.6-0.6c0-0.7,0-1.5,0-2.2
					C388,312.7,388.3,313.1,388.7,313.5z"/>
			</g>
			<g>
				<path d="M388.2,315.2c0.2-0.2,0.3-0.3,0.5-0.5c0.4,0.4,0.7,0.8,1.1,1.2c0,2,1.3,3.4,2.4,5c0.6,0.9,1.2,1.9,1.7,2.8
					c-0.7,0.4-0.6,1.1-0.6,1.7c-1.6-1-1.8-3-3.3-4C389.7,319.2,388.2,317.4,388.2,315.2z"/>
			</g>
			<g>
				<path d="M498.9,421.9c0-3.4,0.1-6.9,0.1-10.3C499.8,415,499.9,418.5,498.9,421.9z"/>
			</g>
			<g>
				<path d="M498.9,410.5c-0.8-0.8-0.5-1.9-0.5-2.9C499.2,408.4,498.8,409.5,498.9,410.5z"/>
			</g>
			<g>
				<path d="M407,325.5c1,0.5,1.8,1.2,2.3,2.2C408,327.5,407.2,326.8,407,325.5z"/>
			</g>
			<g>
				<path d="M468.6,339.9c3.2,2,7.2,0,10.4,2.1c-3-0.2-6,0.5-8.9-0.4C469.3,341.3,468,341.4,468.6,339.9z"/>
			</g>
			<g>
				<path d="M462.4,342c-2,0.1-4-0.3-5.8-1.1C458.6,340.8,460.7,340.5,462.4,342z"/>
			</g>
			<g>
				<path d="M455,340.7c-1.5,0.1-2.9-0.1-4.1-1C452.3,339.9,453.9,339.1,455,340.7z"/>
			</g>
			<g>
				<path d="M451,337.5c1.3,0.5,2.8,0.2,4,1.1C453.6,338.4,452,339.2,451,337.5z"/>
			</g>
			<g>
				<path d="M459,338.7c0.2-0.1,0.4-0.2,0.6-0.2c0.2-0.1,0.3-0.1,0.5,0c0.7,1.1,2.2,0.2,2.9,1.2C461.7,339.5,460.1,340.3,459,338.7z
					"/>
			</g>
			<g>
				<path d="M447,336.8c1,0.1,2-0.3,2.9,0.6C448.9,337.3,447.8,337.8,447,336.8z"/>
			</g>
			<g>
				<path d="M438.3,448.1c1.2,0,2.3,0,3.5,0.1c-1.6,1.2-3.4,0.4-5.1,0.6c0-0.2,0-0.4,0-0.5C437.3,448.1,437.8,448.1,438.3,448.1z"/>
			</g>
			<g>
				<path d="M441.8,448.1c0-0.2-0.1-0.5-0.1-0.7c0.4-0.2,0.8-0.3,1.2-0.5c0.4,0,0.8,0.1,1.2,0.1
					C443.5,447.7,442.8,448.1,441.8,448.1z"/>
			</g>
			<g>
				<g>
					<path d="M391,155.8c1.3-1.1,2.6-2.3,3.9-3.4c1.3-1.1,2.6-2,3.9-2.9c1-0.8,1.6-2,2.9-2.5c2.5-1.8,5.2-3.5,7.6-5.6
						c4.3-2.6,8.6-5.5,12.9-8.1c3.2-2,6.7-3.5,9.9-5.6c0.1,0,0.2,0,0.3,0.1c4.8-3.2,10-5.6,14.9-8.7c0.8-0.5,1.6-0.9,2.2-1.7
						c2.2-1.6,4.6-2.9,7-4.1c6-2.9,11.3-6.8,17-10.2c0.6-0.3,1.2-0.6,1.7-1c1.4-0.9,2.8-1.9,4.1-2.9c1.4-0.6,2.5-1.8,4-2.4
						c4.1-2.8,8.1-5.9,12.4-8.5c4.8-3.6,9.6-7.3,14.3-11.2c0.4-0.4,0.7-0.7,1.2-1c1.1-0.7,2.5-1.1,3-2.6c0-0.2,0-0.3,0.1-0.4
						c0.7-0.5,1.3-1.1,2-1.6c0.9-0.9,2.1-1.5,2.9-2.4c0.7-0.6,1.3-1.2,1.9-1.9c3.2-3.2,6.6-6.2,9.6-9.6c2.2-2.4,4.7-4.4,6.7-6.9
						c1.1-2.1,3.3-3.2,4.6-5.2c0.4-1,1.2-1.6,2-2.3c2.2-1.7,3.2-4.3,5.1-6.3c3.6-4.3,6.3-9.1,9.5-13.6c0.5-1,0.9-1.9,1.7-2.7
						c0.6-0.5,0.9-1.6,2-1.2c0.5,0.2,0.5,0.9,0.4,1.5c-0.3,0.6-0.4,1.3-0.6,1.9c-0.6,0.9-1,1.8-1.1,2.9c-0.7,1-1,2.2-1.4,3.4
						c-1.2,4.6-4.2,8.5-5.7,12.9c-2.3,2.5-3.2,5.9-5.1,8.7c-1.7,2.9-3.4,5.8-5.1,8.6c-1.1,2-2.5,3.7-3.6,5.7
						c-0.2,0.4-0.4,0.7-0.6,1.1c-0.6,0.7-1.1,1.4-1.8,1.9c-1.1,1.7-2.5,3.3-3.8,5c-1.1,1.8-2.8,3.3-4,5.1c-1.3,1.1-2.1,2.5-3.3,3.6
						c-0.9,1.2-2,2.2-2.8,3.5c-1.3,1.6-2.9,2.9-4.3,4.4c-2.9,3-6,5.7-9.2,8.4l0,0c-1.6,0.7-2.5,2.5-4.1,3.3
						c-0.5,0.4-1.1,0.8-1.6,1.3c-0.9,0.4-1.6,1.1-2.3,1.7l0,0c-6.1,3.9-12,8.1-18.3,11.7c-0.6,0.3-1.3,0.4-1.7,0.9
						c-0.8,0.9-1.8,1.2-2.8,1.7c-5.2,2.6-10.2,5.6-15.4,8c-0.7,0.4-1.2,1.3-2.2,1.1c-7.5,3.2-14.6,7.1-21.9,10.6
						c-0.7,0.3-1.4,0.5-2.1,1c-6.3,3.2-12.7,6.2-18.9,9.6c-4.1,2.2-8.2,4.3-12.3,6.4c-5.3,3.1-10.7,6.1-15.5,10.1
						c-2.2,1.6-4.5,3.1-6.4,5.2c-1.7,1.9-3.7,3.5-5.8,5c-2.3,1.9-4.5,3.8-6.7,5.8c-2.6,1.9-4.4,4.6-7,6.4c-1.7,0-1.3-1-1-2
						c0.2-0.4,0.4-0.7,0.7-0.9c1.9-1.8,3-4.2,4.7-6.1c1.1-1.6,2.4-3,3.6-4.6c0.2-0.3,0.5-0.6,0.7-0.9c1.3-1.8,3-3.1,4.3-4.8
						C382.2,164.1,386.7,160,391,155.8z"/>
				</g>
				<g>
					<path d="M518.4,135.4c0.2-0.2,0.4-0.4,0.6-0.6c1.3-0.7,2.3-1.8,3.2-3c0.6-1.2,1.8-2.1,2.4-3.4c0.4-0.5,0.9-1,1.3-1.6
						c1.8,1,1.8,1,0.2,4c-0.5,1.3-1.1,2.7-1.9,4c-1.6,2.1-2.5,4.6-4,6.8c-1.1,2.1-2.9,3.7-4,5.8c-1.3,1.8-2.5,3.6-4,5.2
						c-1.9,2.5-4,4.7-6.3,6.9c-1.2,1.2-2.4,2.4-3.6,3.5c-2.1,1.6-3.9,3.6-6.2,5.1c-1.9,1.5-3.8,3.1-5.8,4.5c-4,3.3-8.6,5.7-13.3,8
						c-5.9,2.9-11.8,5.6-17.7,8.4c-4.7,2-9.6,3.8-14.3,5.7c-3.9,0.5-7.3,2.4-11,3.5c-7,2.1-13.9,4.6-21.1,6.4
						c-4.3,1.1-8.3,2.9-12.6,3.8c-4.3,0.9-8.5,2.5-12.8,3.5c-2.6,0.6-5,1.5-7.6,2.2c-4.9,0.8-9.4,2.8-14.1,4.3
						c-1.8,0.1-3.2,1.1-4.8,1.7c-4.8,2-9.4,4.2-14.1,6.3c-0.7,0.3-1.6,0.9-2.4,0.2c-0.6-0.7,0.2-1.2,0.5-1.7c0.4-1,1.5-1.1,2.2-1.8
						c1.4-1.7,3.5-2.6,5.1-3.9c2.2-1.3,4.1-2.9,6.2-4.2c2.5-1.2,4.7-2.8,6.9-4.3l0,0c1.4-1.1,3.1-1.7,4.6-2.5
						c4.8-2.7,9.9-4.8,14.7-7.4c3.3-1.8,6.9-2.9,10.4-4.3c2.2-1,4.4-1.9,6.8-2.3c2.8-1.3,5.7-2.2,8.6-3.1c8.6-3.3,17.2-6.6,25.9-9.8
						c0.7-0.3,1.3-0.8,2-1c6.9-2.4,13.7-5.3,20.4-8.3c4.5-2,9-3.9,13.2-6.5c5.2-2.3,10.1-5,15.2-7.5c2.1-0.8,3.9-2.3,5.9-3.4
						c4.1-2.4,8-5.1,11.9-7.9c2.3-1.5,4.4-3.2,6.3-5.2C513.8,139.1,516.7,138,518.4,135.4z"/>
				</g>
				<g>
					<path d="M505.8,133.2c-0.2,0.2-0.4,0.3-0.5,0.5c-7.1,4.6-14.1,9.1-21.2,13.7c-2.6,2.1-5.8,3.3-8.6,5.1
						c-3.5,1.9-7.1,3.7-10.7,5.4c-2.5,1-4.8,2.2-7,3.7l0,0c-2.5,0.6-4.7,2.1-7.1,3c-1.1,0.4-2.2,0.9-3,1.7
						c-8.5,4.2-17.3,7.9-26.2,11.5c-10.1,4.1-20.2,8.2-30.4,12.2c-1.3,0.5-2.7,0.9-4,1.4c-5.7,1.9-11.3,4-16.7,6.5
						c-2.1,0.7-3.8,1.9-5.5,3.2c-0.2,0.1-0.5,0.2-0.8,0.2c-0.4-0.1-0.7-0.4-0.8-0.8c0.1-0.8,0.6-1.2,1.3-1.4
						c2.1-1.4,3.7-3.3,5.9-4.6c6.4-4.7,12.9-9.1,19.6-13.4c1.8-1.2,4-1.8,5.5-3.5c7.1-4.3,14.2-8.4,21.7-12c3.8-1.2,7-3.6,10.8-4.8
						c3.1-1.1,6.2-2.3,9-3.9c6.9-3.4,13.8-6.7,20.6-10.3c9.7-4.7,18.9-10.1,28-15.8c5.1-3,10-6.2,14.8-9.7c1.5-1,2.8-2.1,4.2-3.3
						c0.6-0.2,0.3-1.2,1.1-1.2c2.1-0.5,3.1-2.7,5-3.5c1.4-1.3,2.9-2.4,4.1-3.9c1.5-1.4,2.7-3.1,4.5-4.1c0.9-0.3,1.3-1.2,2-1.7
						c1.8-1.3,3.1-3.2,4.9-4.4c1.3-1.4,2.7-2.7,4.1-4.1c1.6-1.6,2.9-3.5,4.5-5.1c0.9-1,2.1-1.7,2.8-2.9c0.4-1.1,1.5-1.7,2-2.7
						c0.4-0.4,0.7-0.8,1.1-1.2c1.4-0.7,1.9-2.2,2.9-3.1c0.5-0.8,0.9-1.9,2-1.4c1.1,0.5,0.2,1.4,0,2.2c-0.1,0.6-0.2,1.3-0.7,1.8
						c-1.3,3.7-3.4,6.9-5.2,10.3c-3.1,5.2-6.2,10.5-9.7,15.4c-2.5,3.9-5.6,7.3-8.5,10.9c-0.6,1.5-2,2.3-3,3.5
						c-1.1,1.1-2.2,2.1-3.5,3c-1.6,0.8-2.3,2.7-3.9,3.5C509.3,130.2,507.5,131.5,505.8,133.2z"/>
				</g>
				<g>
					<path d="M352.8,242.7c-1.3,0.4-2.6,0.8-3.9,1.2c-1.1,0.3-2.3,0.3-3.3,0.8c-2.2,0.6-4.3,1.3-6.4,2.2c-0.4,0.1-0.8,0.2-1.2,0.3
						c-2.2-0.6-1.1-1.7-0.1-2.2c4.4-2.4,8.4-5.7,13.1-7.6c2-1.5,4.8-1.7,6.4-3.9l0,0c3.4-1.1,6.6-2.7,9.9-4.2
						c3.4-1.6,7.1-2.4,10.7-3.7c1.4-0.5,2.8-1.1,4.1-1.9c1.4-0.2,2.9,0,4.1-1.2c3.7-0.8,7.3-1.8,10.8-3.3c6.3-1.9,12.4-4.3,18.8-5.7
						c3.7-0.8,7-2.6,10.7-3.3c8.1-2.3,16.2-4.8,24.2-7.6c3.4-1.2,6.7-2.6,10-4c7.1-3.7,14.4-7,21.1-11.5c1.3-0.4,2.2-1.3,3.2-2.1
						c0.2-0.2,0.4-0.4,0.6-0.5c2.7-1,4.6-3.1,6.8-4.8c1.3-1.4,2.7-2.6,4.3-3.7c0.4-0.3,0.8-1,1.4-0.6c0.6,0.4,0.3,1,0.1,1.5
						c-0.2,0.6-0.3,1.3-0.5,1.9l0,0c-0.8,0.6-0.9,1.5-1.1,2.3l0,0c-1.4,1.4-2.3,3.1-3.2,4.8c-3.3,4.9-7.4,9-11.6,13.1
						c-3.7,3-7.7,5.5-11.7,8.1c-8,5-16.8,8.3-25.7,11.3c-5.3,1.8-10.8,3.4-15.9,5.7c-2.4-0.4-4.3,1.2-6.4,1.7
						c-3.1,0.8-6.5,1.1-9.4,2.7c-1.7,0.4-3.4,0.8-5.1,1.1c-2.5,0.5-5.1,0.5-7.5,1.8c-1,0.2-2.1,0.1-3.1,0.4c-1.1,0-2,0.6-3,0.9
						c-3.8,0.4-7.4,1.3-11.1,2.2c-4.7,1.2-9.5,2.1-14.3,3.3C363,239.5,357.8,240.9,352.8,242.7z"/>
				</g>
				<g>
					<path d="M429.9,252.4l-0.3,0.1l-0.3-0.1c-2.3,1.2-5.1,1.2-7.4,2.5c-0.3,0.1-0.5,0.2-0.8,0.3c-1.6,0.2-3.3-0.2-4.8,0.3
						c-0.3,0.1-0.6,0.2-0.8,0.3c-1.6,0.5-3.3,0.6-4.9,0.9c-2.5,0-4.9,0-7.4,0c-1-0.2-2-0.3-3-0.3c-0.3,0-0.6-0.1-0.8-0.1
						c-1.1-0.4-2.3-0.3-3.4-0.5c-0.3-0.1-0.6-0.2-0.9-0.3c-3.8-0.2-7.6-0.1-11.4-0.1c-2.3,0.6-4.5-0.3-6.8-0.3
						c-4.2-0.1-8.3,0.5-12.4,0.8c-1.2,0.1-2.3,0.2-3.5-0.1c-1.2-2.1-1-2.3,2.4-2.4c2.4-1,5-1.3,7.4-2.2c0.3-0.2,0.5-0.3,0.8-0.3
						c3.4-0.5,6.7-1.5,10-2.3c4.2-1.2,8.6-1.5,12.9-2.4c6.7-0.3,13.2-2,19.7-3.6c1.2-0.3,2.4-0.4,3.6-0.5c0.3-0.1,0.5-0.2,0.8-0.4
						c2.8-0.9,5.9-0.8,8.4-2.5c4.4-0.5,8.3-2.4,12.1-4.2c5.8-2.7,11.4-5.9,17-8.9c1.1-0.7,2.3-1.4,3.3-2.2c0.4-0.2,0.7-0.3,1.1-0.1
						c0.2,0.2,0.3,0.4,0.3,0.7c-0.1,0.4-0.3,0.7-0.6,1c-4.9,7-10.9,12.9-17.2,18.6C439.1,247.4,434.5,249.9,429.9,252.4z"/>
				</g>
				<g>
					<path d="M343.2,190.8c-0.2,0.2-0.3,0.4-0.5,0.6c-4.2,2.8-8.6,5.2-13.5,6.8c-3.6,1.1-7.1,0.5-10.7,1.1
						c-6.7,1.1-12.7,3.4-16.6,9.4c-2.2,3.8-4.1,7.6-3.6,12.2c0.2,2.3,1.8,4,4,3.5c1.5-0.3,2.6,0.1,3.8,0.5l0,0
						c2.1,2.7,1.7,5.4-0.9,8.6c-0.7,0.9-1.8,1.4-2.7,2c-0.6,0-1.1,0.3-1.6,0.5c-1.7,0.6-2.6,0.4-2.1-1.8c0.4-1.4-0.4-2.4-1.4-3.2
						c-1.1-0.9-2.3-0.7-3.3,0.3c-1.8,0.8-3,2.3-4.5,3.4c-2,1.6-2.8,4.1-4.2,6.1c-2,0.3-1.7-1.2-1.8-2.3c-0.6-4.7,0.4-8.9,3.6-12.5
						c1-1.6,2.4-2.9,4.1-3.7c1.9-0.9,2.8-2.7,3.2-4.4c0.7-3.6,2.3-6.7,3.5-10c2.4-4.5,5.1-8.8,8.6-12.5c0.8-0.8,1.5-1.5,2.3-2.3
						c0.7-0.4,1.3-1.1,2.1-1.4c1.1-0.6,1.6-1.9,2.8-2.3c1.3-0.9,2.3-2.3,3.5-3.3c1.6-1.6,3.3-3.1,4.7-4.9c0.3-0.4,0.6-0.9,0.9-1.3
						c1.7-0.9,2-3.1,3.6-4.2c2.2-3.1,4.1-6.5,6-9.8c0.4-0.6,0.5-2,1.6-1.5c1.3,0.6,0.7,1.8,0.3,2.7c-1.6,4-3.4,7.9-5.4,11.8
						c-0.3,0.6-0.6,1.2-0.7,1.8c0.2,1-1.3,1.8-0.1,2.8c1.4-0.8,2.2-2.2,2.9-3.5c0.1-0.2,0.3-0.4,0.5-0.6c2.1-2.4,3.9-5,5.6-7.7
						c2.1-1.9,2.8-4.7,4.3-6.9c0.3-1,0.6-1.9,1.7-2.3c1.3,0,1.4,0.9,1.3,1.9c-0.9,2.1-2.1,4.1-2.7,6.4c-1.3,2.4-2.7,4.8-4.5,6.9
						c-1,1.5-2.2,2.8-2.9,4.5c-0.1,0.2-0.2,0.5-0.3,0.7c-0.5,0.7-1.2,1.3-1.8,2c-0.4,0.3-0.8,0.6-1.2,0.9c-0.7,0.5-1.5,1.2-0.8,2.1
						c0.7,0.9,1.5,0,2.3-0.2c2.2,0.1,1.6,1.6,1.4,2.8c-0.3,2,0.5,1.9,1.8,1.1c1.6-1.2,3.5-2,5-3.4c0.2-0.3,0.5-0.5,0.9-0.7
						c2-0.4,2.8-2.5,4.6-3.3c0.9-0.7,1.7-1.5,2.4-2.3c0.4-0.4,0.9-0.7,1.5-0.3c0.5,0.5,0.2,1,0,1.5c-0.8,1.4-1.9,2.5-2.9,3.7
						C346.5,188.6,344.6,189.5,343.2,190.8z"/>
				</g>
				<g>
					<path d="M435,266.7c-2.1,2-4.2,3.9-6.8,5.1c-3.2,1.6-6.5,3.1-9.7,4.8c-8.7,3.5-17.6,2.4-26.3,1c-6-0.9-12-2.4-18-3.9
						c-1.3,0.1-2.5-0.3-3.7-0.9c-0.8-0.2-1.5-0.3-2.3-0.5c-0.5-0.6-2,0.1-1.8-1.2c0.2-1.2,1.4-0.7,2.1-0.7
						c7.2-0.2,14.4,0.3,21.5-0.3c0.4,0,0.8,0,1.1,0c4.1-0.6,8.2-2,12.5-1.7c2.8-1.7,6.2-1.3,9.3-2.1c8.7-2.3,17.1-5.1,25-9.3
						c0.9-0.7,2-1,2.8-1.9c0.6-0.2,1.1-0.6,1.7-0.7c1.8-0.7,3.2-1.9,4.6-3.2l0,0c1.2-0.4,1.7-0.1,1.2,1.2l0,0
						c-1.3,2.1-3.2,3.7-4.5,5.8l0,0c-1.5,1.5-2.9,3.1-4.5,4.6C437.8,264.1,436.6,265.5,435,266.7z"/>
				</g>
				<g>
					<path d="M336.3,191.9c-0.5,1-1.2,1.5-2.3,0.8c-0.8-0.6-1.3-1.2-0.5-2.3c0.5-0.8,0.8-1.9-0.6-2.4c-0.2-0.4-0.1-0.7,0.1-1.1
						c0.1-0.2,0.3-0.4,0.5-0.6c0.8-0.7,1.7-1.3,2.4-2.3c0.8-1.1,2.1-1.7,2.8-2.9c0.2-0.2,0.4-0.4,0.6-0.6c2.8-2.9,5.7-5.7,8-9.2l0,0
						c1.5-1.6,3-3.3,3.9-5.2c0-0.4,0-0.9,0.5-1.1c1.2-0.1,0.7-1.8,1.8-2c0.4-0.1,0.8,0,1.2,0.3c0.1,1.8-1.3,3.1-1.7,4.8
						c-1.7,3.5-3.7,6.8-6.4,9.6c-3.3,4-6.6,8-10.3,11.6C335.3,190.1,334.4,191,336.3,191.9z"/>
				</g>
				<g>
					<path d="M327.7,181.1c0.7-3.7,3.3-6.7,4.4-10.2c0.6-2,2.1-3.8,2-6.1c-2.9,3.5-4.2,8-7.6,11.2c-0.3-0.2-0.4-0.4-0.1-0.7
						c2.7-4.9,5.9-9.5,8.1-14.6c1-2.1,1.9-4.3,2.8-6.4c1.5-0.6,1.6,0.4,1.3,1.4c-0.2,0.7-0.5,1.4-0.8,2l0,0c-0.8,0.8,0.1,2-0.6,2.8
						c-0.4,1.3-0.8,2.6-1.2,3.9c-1.5,4.1-3.3,8.1-5.2,12l0,0c-0.3,0.6-0.5,1.3-0.9,2c-0.4,1-0.8,2.1-1.8,2.8
						C328.2,181.2,327.9,181.2,327.7,181.1z"/>
				</g>
				<g>
					<path d="M310.6,209.6c4.9-4.8,11-6.4,16.1-3.9c-1.1,0.9-2.3,1.2-3.6,1.6c-1,0.6-1.8,1.2-2.2,2.4l0,0c-0.6,0.3-0.8,1.5-1.8,1
						c-0.6-0.4-0.2-1,0.1-1.5c0.4-0.7,0.4-1.3-0.4-1.6c-1.1-0.4-2-0.1-2.6,0.9l0,0c-1.5,0.3-2.4,1.4-3.4,2.4c-0.5,1.3-2,1.3-2.8,2.2
						c-1.3,0.4-1.7-0.1-1.3-1.3l0,0C309.5,211.1,310,210.3,310.6,209.6z"/>
				</g>
				<g>
					<path d="M428.1,223.7c1.8-1.9,4.3-1.8,6.5-2.6c6.5-2.5,13.2-4.5,19.7-7c5.3-2,10.5-4.5,15.4-7.4c0.3-0.2,0.6-0.2,0.9,0.1
						c-6.9,4.9-14.7,7.8-22.4,10.7c-4.9,1.8-10,3.2-14.9,5.3c-1.4,0.6-3,0.3-4.3,1.2C428.6,224.1,428.3,224.1,428.1,223.7z"/>
				</g>
				<g>
					<path d="M301.5,208.4c3-4.5,7.2-7.1,12.3-8.7c3.8-1.2,7.7-0.6,11.4-1.3c4.9-0.9,9.7-2.3,13.8-5.3c1.1-0.8,2.1-2,3.7-1.8
						c-5.8,5-12.5,7.9-20.3,8.1c-7.7,0.2-14.5,2.5-19.7,8.5C302.3,208.1,302.1,208.8,301.5,208.4z"/>
				</g>
				<g>
					<path d="M460.8,198.8c-2.8,1.3-5.4,2.9-8.3,3.8c-5.6,1.9-11.1,3.8-16.7,5.5c-3.1,1-6.3,1.6-9.4,2.6c-0.3-0.6,0.3-0.8,0.6-1.2
						c4.7-1,9-3.1,13.6-4.3c6.5-1.7,12.5-4.4,18.8-6.5C459.9,198.4,460.3,198.3,460.8,198.8z"/>
				</g>
				<g>
					<path d="M406.4,155.3c10.4-5.4,20.6-11.2,31.3-16c0.5-0.2,0.9-0.3,1.3,0.1c-5.8,3-11.7,6-17.5,9c-4.6,2.3-8.9,5.1-13.8,7
						C407.3,155.6,406.9,155.7,406.4,155.3z"/>
				</g>
				<g>
					<path d="M472.9,165.7c-7.3,4-14.7,7.5-22.5,10.4c-3.8,1.4-7.3,3.5-11.3,4.4c-0.2-0.1-0.2-0.3-0.2-0.4c0-0.1,0.1-0.2,0.1-0.2
						c10.8-4.4,21.6-8.7,32-14c0.3-0.2,0.7-0.2,1.1-0.3C472.4,165.3,472.7,165.4,472.9,165.7z"/>
				</g>
				<g>
					<path d="M346,224.9c-0.3,0.5-0.5,1-0.9,1.7c5.8-1.9,10.7-5.2,16.3-6.9c0.5-0.3,0.9-0.3,1.3,0.1c-7.2,3.4-14.5,6.9-21.7,10.3
						c-0.8,0.2-1.8,0.8-1.9-0.7c1.9-1.5,3.9-3,5.8-4.5C345.2,224.6,345.6,224.6,346,224.9z"/>
				</g>
				<g>
					<path d="M486,130.9c-9,5.9-18.2,11.5-28.1,15.9c-0.3-0.2-0.4-0.4-0.1-0.6c9.1-5.1,18.2-10.3,27.3-15.4
						C485.5,130.5,485.7,130.5,486,130.9z"/>
				</g>
				<g>
					<path d="M351.1,237.6c-4.7,2-8.6,5.3-13.1,7.7c-0.4,0.2-1.8,0.9,0,1.4c0.4,0.6-0.3,0.8-0.5,1.3c-0.9,0.4-1.9,0.7-2.8,1.1
						c-1.1,0.2-2.1,0.5-3.2,0.9c-1.1,0.5-1.4,0-0.9-1c6.6-4.4,13.3-8.7,20.5-12C351.4,237.1,351.4,237.3,351.1,237.6z"/>
				</g>
				<g>
					<path d="M456.7,226.1c-7.4,4-14.7,8.3-22.6,11.3c-2.2,0.9-4.4,2-7,1.9c-0.2,0.1-0.5,0.1-0.7,0c-0.2-0.2-0.2-0.5,0-0.7
						c4,0,7.4-2,10.8-3.6c6.6-3,12.9-6.5,19.4-9.7C456.9,225.6,457,225.8,456.7,226.1z"/>
				</g>
				<g>
					<path d="M395.6,177.5c-1.3,2.9-4.4,3.7-6.8,5.1c-5.8,3.6-11.4,7.5-17,11.4c-0.4,0.3-0.8,0.4-1.3,0.6c-0.3-0.2-0.3-0.4-0.1-0.7
						c3.8-3.5,8.4-6,12.6-9c1.1-0.8,2.2-1.6,3.5-2.2l0,0c0.7-0.7,1.7-0.9,2.3-1.7l0,0c1.1-0.6,2.1-1.5,3.4-1.7
						C393.3,178.6,394.2,177.6,395.6,177.5z"/>
				</g>
				<g>
					<path d="M439,179.9c0,0.2,0,0.4,0,0.6c-3.3,2-7.1,3-10.7,4.4c-5.7,2.2-11.5,4.3-17.2,6.4c-0.7,0.3-1.3,0.4-1.9-0.1
						C419.1,187.5,429.1,183.7,439,179.9z"/>
				</g>
				<g>
					<path d="M382,224c-2.4,2.2-5.6,2.7-8.5,3.4c-4.8,1.2-9,3.9-13.5,5.6c-0.9,0.3-1.7,0.8-2.7,0.5c5.4-3.1,11.1-5.5,17.1-7.3
						c2.3-0.7,4.6-1.6,6.8-2.4C381.6,223.5,381.9,223.6,382,224z"/>
				</g>
				<g>
					<path d="M352.8,242.7c1.8-2.1,4.6-2.1,7-2.7c7.5-2.1,14.9-4.3,22.7-5.3c0.6-0.3,1.3-0.4,1.9,0.1c-2.7,1.4-5.9,1.6-8.7,2.1
						c-7.6,1.3-14.8,3.9-22.2,6C353.2,242.8,353,242.7,352.8,242.7z"/>
				</g>
				<g>
					<path d="M395.6,255.2c0.2,0,0.4,0,0.6,0c1,0.8,2.4-0.1,3.4,0.6l0,0c0.9,0.7,2,0,2.9,0.5c2.8,0,5.7,0,8.5,0
						c1.6-0.3,3.1-0.5,4.6-1.1c0.2,0,0.4,0,0.6,0c1.7-0.7,3.5,0.2,5.2-0.5c0.2,0,0.4-0.1,0.5-0.1c0.5-0.3,0.9-0.3,1.3,0.1
						c-0.5,0.3-0.9,0.8-1.4,0.8c-8.6,1.2-17.2,2.4-25.8,0.6c-4-0.8-8.1-0.4-12.2-0.5c-0.1-0.2-0.1-0.3-0.2-0.5
						c0.3-0.2,0.6-0.3,0.9-0.3C388.2,255.1,391.9,254.6,395.6,255.2z"/>
				</g>
				<g>
					<path d="M439.1,139.4c-0.4,0-0.9-0.1-1.3-0.1c7.2-3.6,14.3-7.1,21.5-10.7c0.8-0.4,1.7-0.9,2.7-0.6c-6.4,3.9-13.4,6.8-20.1,10.2
						C441,138.6,440,139,439.1,139.4z"/>
				</g>
				<g>
					<path d="M442.9,243.7c6.1-5.9,12.3-11.8,17.2-18.8c0.4,0.4,0.4,0.8,0.1,1.2c-4.5,6.9-10.2,12.5-16.5,17.7
						C443.3,244.1,443.1,244,442.9,243.7z"/>
				</g>
				<g>
					<path d="M460.8,198.8c-0.5,0-0.9-0.1-1.4-0.1c7.6-3.8,15.1-7.7,22.4-12c0.2,0.1,0.2,0.3,0.2,0.5c0,0.2-0.1,0.2-0.1,0.2
						C475.2,191.9,468.1,195.5,460.8,198.8z"/>
				</g>
				<g>
					<path d="M394.4,246.6c-4.4,0.6-8.8,0.9-13.1,2.3c-3.5,0.6-6.9,1.5-10.3,2.3l0,0c-1.6,0.8-3.3,1.3-5.1,0.6
						c6.2-2.2,12.7-3.4,19.1-4.6c3.1-0.6,6.3-1.1,9.5-1.6c0.9-0.6,1.8-0.3,2.8-0.2C397,247.4,395.2,245.7,394.4,246.6z"/>
				</g>
				<g>
					<path d="M437.4,157.1c-2.9,2.4-6.6,3-9.9,4.4c-2.1,0.9-4.2,2-6.2,3c-1.3,0.6-2.5,1.5-4,1.1c4.7-3.5,10.4-4.8,15.5-7.4
						c0.9-0.5,1.9-0.8,2.8-1.2C436.2,156.7,436.8,156.6,437.4,157.1z"/>
				</g>
				<g>
					<path d="M347.1,186.7c0.8-1.7,2.5-2.9,3.2-5.3c-1.5,1.2-2.7,2.1-3.8,3c-0.3-0.2-0.3-0.4-0.1-0.7c2.1-2.3,4.1-4.5,6.2-6.8
						c0.9-0.3,1.4-0.2,1.2,1c-0.2,1.3-1.1,2.1-1.6,3.2c-1,2.3-2.6,4.1-4.5,5.7C347.5,187.1,347.3,187,347.1,186.7z"/>
				</g>
				<g>
					<path d="M437.4,157.1c-0.6,0-1.2,0-1.8-0.1c7.4-3.6,14.8-7.2,22.3-10.9c0,0.2,0,0.4,0.1,0.6
						C451.2,150.5,444.3,153.8,437.4,157.1z"/>
				</g>
				<g>
					<path d="M475.6,102.3c-5.3,3.8-10.9,7-16.4,10.4c-0.8,0.5-1.6,1.1-2.6,0.9c-0.1-0.1-0.2-0.3-0.1-0.4c0-0.1,0.1-0.2,0.1-0.2
						c6-3.6,12.1-7.3,18.1-10.9C475.1,101.9,475.4,102,475.6,102.3z"/>
				</g>
				<g>
					<path d="M449.9,117.7c-3.1,3.2-7.4,4.7-11.1,7c-2,1.2-3.8,2.7-6.2,3.2c0-1.3,1.1-1.4,1.9-1.8c4.8-2.8,9.5-5.6,14.3-8.4
						C449.1,117.3,449.5,117.3,449.9,117.7z"/>
				</g>
				<g>
					<path d="M365.3,187.8c2.1-2.3,4.1-4.7,6.8-6.3c0.3,0.2,0.4,0.4,0.1,0.7c-3.8,3.8-7.7,7.6-11.5,11.3c-2.5-0.3-0.6-1.5-0.5-2.3
						c0.2-0.2,0.4-0.4,0.6-0.5C363,190.8,363.4,188.1,365.3,187.8z"/>
				</g>
				<g>
					<path d="M406.4,155.3c0.5,0,0.9,0.1,1.4,0.1c-5.4,3.4-10.8,6.8-16.2,10.2c-0.3,0.3-0.5,0.2-0.7-0.1c2.7-3,6.4-4.5,9.6-6.9
						C402.4,157.3,404.5,156.4,406.4,155.3z"/>
				</g>
				<g>
					<path d="M397.4,245.6c-1,0-2,0-2.9-0.1c2.4-0.6,4.9-1.5,7.3-1.7c5.8-0.5,11.4-2.2,17.2-2.9c0.2,0.1,0.3,0.3,0.2,0.6
						c-0.2,0.3-0.5,0.4-0.8,0.6l0,0c-6.2,1.2-12.4,2.4-18.6,3.9C399,246.1,398.2,246.2,397.4,245.6z"/>
				</g>
				<g>
					<path d="M316.3,208.4c0.4-1.7,1.6-2,3-1.3c2,0.9,0.3,2-0.1,3.2c0.7-0.3,1.2-0.5,1.8-0.7c-1,2.3-2.4,4.3-4.4,5.8
						c-0.7,0-1.7,0.7-1.9-0.7c1.4-1.2,3-2.4,3.7-4.2c0.3-0.8,1.5-1.6,0.6-2.5C317.9,207.1,317.2,208.2,316.3,208.4z"/>
				</g>
				<g>
					<path d="M301.5,208.4c0.4-0.2,0.8-0.3,1.3-0.5c-2.4,3.9-4.4,7.9-4.1,12.6c0.1,2.5,1.6,3.9,4,3.3c1.6-0.4,2.5,0.2,3.5,1.1
						c-1.4,0.2-2.7-0.2-4.1-0.1c-2.1,0.1-3.7-1-4-3.5C297.5,216.6,299,212.4,301.5,208.4z"/>
				</g>
				<g>
					<path d="M385.4,201c-0.3,0.7-0.8,1-1.4,1.3c-4.3,1.5-8.3,3.5-12.1,5.9c-0.3,0.2-0.9,0.1-1.4,0.2c-0.2-0.1-0.3-0.3-0.2-0.4
						c0.1-0.1,0.1-0.2,0.2-0.2c4.1-2.9,8.8-4.4,13.2-6.7C384.2,200.6,384.8,200.6,385.4,201z"/>
				</g>
				<g>
					<path d="M472.9,165.7c-0.3-0.1-0.6-0.1-0.8-0.2c5.3-2.7,10.7-5.4,16-8.1c0.3,0.2,0.3,0.5,0.1,0.8
						C483.1,160.8,478.2,163.7,472.9,165.7z"/>
				</g>
				<g>
					<path d="M342,170.8c-0.4-2.5,1.2-4.3,2.3-6.3c0.4-2.7,1.4-5.2,1.7-7.9c0-0.3,0-0.5-0.1-0.8c-0.1-0.7-0.1-1.3,0.5-1.7
						c2,1.1,0.7,2.7,0.7,4.1C346.3,162.7,344.5,166.9,342,170.8z"/>
				</g>
				<g>
					<path d="M369.9,197.6c5-2.1,10-4.2,15-6.2c0.6-0.3,1.5-0.1,2.2-0.1c-5.9,2.5-11.8,5-17.7,7.4
						C369,198.1,369.6,197.9,369.9,197.6z"/>
				</g>
				<g>
					<path d="M391,155.8c-3.1,4.1-7.1,7.4-10.6,11.1c-0.6,0.7-1.3,1.4-1.9,2.1c-0.3,0.3-0.5,0.3-0.7-0.1
						C381.8,164.1,386.1,159.7,391,155.8z"/>
				</g>
				<g>
					<path d="M428.1,223.7c0.3,0.1,0.6,0.1,0.9,0.2c-5.5,1.7-11,3.6-16.7,4.5c1.6-2.2,4.3-1.6,6.5-2.3
						C421.7,225.2,424.8,223.9,428.1,223.7z"/>
				</g>
				<g>
					<path d="M422.4,133.6c-4.3,2.7-8.7,5.4-13,8.2c-0.3,0.1-0.5,0.1-0.7-0.2c4.3-3.3,8.9-6.1,13.7-8.7c0.2,0.1,0.2,0.3,0.2,0.4
						C422.6,133.5,422.5,133.6,422.4,133.6z"/>
				</g>
				<g>
					<path d="M464.2,126.9c5-3,9.9-6,15.4-8C474.7,122.1,469.7,125,464.2,126.9z"/>
				</g>
				<g>
					<path d="M442.9,243.7c0.2,0,0.5,0.1,0.7,0.1c-4,3.7-8.5,6.7-13.7,8.6c0.2-0.7,0.7-1.1,1.4-1.3
						C435.5,249.2,439.1,246.3,442.9,243.7z"/>
				</g>
				<g>
					<path d="M384.3,234.7c-0.6,0-1.2-0.1-1.9-0.1c3.7-1.2,7.4-2,11.3-2.3c0.8-0.3,1.7-0.7,2.5-1c1.1,0,2.1-0.1,3.2-0.1
						c0.3-0.2,0.6-0.1,0.9,0.2C395.1,232.9,389.7,233.7,384.3,234.7z"/>
				</g>
				<g>
					<path d="M306.6,195.3c-1.6,3.5-4.7,6-6.4,9.5c-0.5,1-0.6,2.7-2.2,3.1C299.8,202.9,302.4,198.5,306.6,195.3z"/>
				</g>
				<g>
					<path d="M481.1,198.6c0.2,0,0.5,0.1,0.7,0.1c-3.4,3.2-7,6-11.2,8.1c-0.3,0-0.6-0.1-0.9-0.1
						C473.5,203.9,477.3,201.3,481.1,198.6z"/>
				</g>
				<g>
					<path d="M335.6,189c3-3.8,7.4-6.4,9.5-11c0.1-0.3,0.8-0.2,1.3-0.3c-1.7,3.3-4.3,5.9-6.9,8.5c-0.4,1.1-1.1,1.9-1.9,2.7
						c-0.5,0.4-1.1,0.7-1.7,0.5C335.8,189.1,335.7,189,335.6,189z"/>
				</g>
				<g>
					<path d="M294,231.3c2.2-1.9,4.9-1.1,4.9,1.7c0,3.4,1.4,3,3.5,2.2c0.4-0.2,0.7-0.1,0.9,0.2c-0.7,0.3-1.4,0.6-2.1,0.9
						c-3.1,1.3-3.1,1.3-2.9-2.2C298.4,231.8,296.9,230.8,294,231.3z"/>
				</g>
				<g>
					<path d="M445.2,194.6c3.1-2.2,6.8-3,10.2-4.4c1.3-0.5,2.5-1.9,4.1-1.4C455,191.5,450.3,193.5,445.2,194.6z"/>
				</g>
				<g>
					<path d="M337.9,153c-0.5-2.2,2.2-3,2.1-5c0-0.1,0.6-0.4,0.7-0.3c0.3,0.2,0.7,0.7,0.6,0.8c-1.7,2.2-0.2,5.3-2.2,7.3
						C338.4,155.1,339.5,153.5,337.9,153z"/>
				</g>
				<g>
					<path d="M383.5,255.3c0.1,0.1,0.1,0.3,0.2,0.4c-0.7,0.4-1.4,0.7-2.1,0.6c-4-0.8-8.1-0.3-12.1-0.4c-0.1-0.2-0.2-0.3-0.3-0.5
						c0.1-0.4,0.4-0.5,0.8-0.5C374.5,254.5,379.1,254.5,383.5,255.3z"/>
				</g>
				<g>
					<path d="M366,218.1c3.6-1.3,7.3-2.5,10.9-3.7c1.1-0.4,2.2-0.5,3.3-0.3c-4.8,1.5-9.4,3.5-14.3,4.5c-0.2-0.1-0.3-0.3-0.2-0.4
						C365.8,218.2,365.9,218.1,366,218.1z"/>
				</g>
				<g>
					<path d="M363.6,253.4c-2.8,0.1-2.8,0.1-2.7,1.7c-0.4,0.7-1.3,0.6-1.8,1c-0.9,0.4-1.9,0.6-2.9,0.5c-0.8-0.2-1.8,0.4-2.3-0.6
						c0.3-0.8,1.1-0.8,1.7-1.1c1-1,2.5-0.2,3.6-0.9c1.3-1.3,2.9-1.4,4.6-1.2c0.2,0.1,0.3,0.2,0.2,0.4
						C363.8,253.4,363.7,253.4,363.6,253.4z"/>
				</g>
				<g>
					<path d="M422.4,133.6c0-0.2,0-0.4,0-0.6c3.2-1.8,6.1-4.3,9.8-5.2C429.6,130.7,425.6,131.6,422.4,133.6z"/>
				</g>
				<g>
					<path d="M396.8,219.2c-3.2,2.2-6.9,3-10.6,3.6c-0.3,0.2-0.6,0.1-0.8-0.1C389,221.2,392.8,219.9,396.8,219.2z"/>
				</g>
				<g>
					<path d="M331,176.4c1.4-4.1,3-8.2,5.2-12C335.4,168.8,333.4,172.7,331,176.4z"/>
				</g>
				<g>
					<path d="M427,209.5c-0.2,0.4-0.4,0.8-0.6,1.2c-3.7,0.6-7,2.8-10.9,2.8c2.5-1.7,5.5-2,8.3-3.1C424.8,210,425.9,209.6,427,209.5z
						"/>
				</g>
				<g>
					<path d="M337.5,171.9c-1.8,2.7-3,6-5.9,7.9c-0.3-0.4-0.3-0.8,0-1.1c1.9-2.5,3.8-5,5.7-7.5c0.2,0.1,0.2,0.3,0.2,0.4
						C337.6,171.8,337.6,171.9,337.5,171.9z"/>
				</g>
				<g>
					<path d="M464.8,157.7c3.7-1.6,6.9-4.1,10.8-5.2c-3.2,2.6-7,4.2-10.8,5.8C464.4,158.1,464.4,157.9,464.8,157.7z"/>
				</g>
				<g>
					<path d="M347.1,171.3c-1.7,3.9-4.7,6.6-8,9.2C341.4,177.1,344.3,174.2,347.1,171.3z"/>
				</g>
				<g>
					<path d="M385.4,201c-0.6,0-1.1,0-1.7,0c3.9-1.9,7.7-3.8,12-4.6C392.5,198.6,388.6,199.1,385.4,201z"/>
				</g>
				<g>
					<path d="M337.5,171.9c-0.1-0.2-0.1-0.4-0.2-0.7c1.3-2.1,2.6-4.2,3.9-6.3c0.2-0.3,0.5-0.3,0.7,0
						C340.4,167.3,340.3,170.4,337.5,171.9z"/>
				</g>
				<g>
					<path d="M360.2,191.2c0.5,0.7-1.5,1.9,0.5,2.3c-0.2,1-1.2,1.4-1.7,2.3c-0.5,0.4-0.9,1-1.6,1.1c-1,0.3-1.1-0.3-0.7-1.1
						C357.9,194.3,359.1,192.8,360.2,191.2z"/>
				</g>
				<g>
					<path d="M408.7,141.6c0.2,0.1,0.5,0.1,0.7,0.2c-2.2,2.3-4.9,3.9-7.6,5.5c-0.3-0.2-0.3-0.4-0.1-0.7
						C404.1,144.9,406.2,143,408.7,141.6z"/>
				</g>
				<g>
					<path d="M365.3,187.8c-1,1.1-1.9,2.2-2.9,3.3c-0.7,0.8-1.4,1-1.6-0.4l0,0c0.7-1,1.8-1.7,2.3-2.9c0.1-0.3,0.1-0.7,0.2-1
						c0.5-0.3,0.9-0.9,1.6-0.6C365.1,186.6,363.7,187.7,365.3,187.8z"/>
				</g>
				<g>
					<path d="M370,179.3c-1.5,2.1-2.4,4.6-4.6,6.2c-0.3-0.4-0.3-0.8,0-1.2c1.1-1.9,2.1-3.8,3.9-5.1C369.5,179,369.7,179,370,179.3z"
						/>
				</g>
				<g>
					<path d="M304.8,233.5c2.3-2.6,2.4-5.5,1.2-8.5c2.8,1.9,2.5,5.1-0.6,8.6C305.2,233.8,305,233.8,304.8,233.5z"/>
				</g>
				<g>
					<path d="M356.4,256.4c0.9-0.2,1.8-0.4,2.7-0.7c3.4-0.1,6.8-1.1,10.2-0.1c0.1,0.1,0.2,0.2,0.2,0.3c-1.5,0.7-3.1,0.4-4.7,0.4
						c-2.9-0.2-5.7,0.6-8.6,0.6c-0.2-0.2-0.2-0.3-0.1-0.4C356.2,256.5,356.3,256.4,356.4,256.4z"/>
				</g>
				<g>
					<path d="M342,165c-0.2,0-0.4,0-0.7,0c1.1-3.3,2.9-6.2,4.6-9.2c0.1,0.1,0.2,0.3,0.3,0.4c-0.2,2.5-0.7,5-3,6.6
						C342.8,163.5,342.4,164.3,342,165z"/>
				</g>
				<g>
					<path d="M363.6,200.4c0.2,0.2,0.4,0.4,0.6,0.6c-0.7,1.9-2.8,2.1-4,3.4c-0.3,0.2-0.7,0.4-1,0.7c-0.7,0.2-0.9-0.1-0.7-0.7
						c0.9-1.4,2.1-2.4,3.3-3.4C362.4,200.8,362.9,200.1,363.6,200.4z"/>
				</g>
				<g>
					<path d="M351.1,237.6c0-0.2,0-0.5-0.1-0.7c1.8-1.7,4.1-2.4,6.3-3.4c-0.1,2.2-2.2,2.1-3.4,2.9
						C353.1,236.9,352.1,237.2,351.1,237.6z"/>
				</g>
				<g>
					<path d="M337.4,188.4c0.6-0.9,1.2-1.8,2.2-2.4c0.3,3.4,2,0.2,2.9,0.6c0.4,0.7-0.2,0.8-0.5,1.2c-0.2,0.1-0.4,0.3-0.6,0.4
						c-1,0.8-2,1.5-3.3,1.5C337.5,189.5,337.2,189.1,337.4,188.4z"/>
				</g>
				<g>
					<path d="M330.5,248.9c0.1,0.8,0.4,0.9,1.1,0.6c0.9-0.5,1.9-0.8,3-0.5c-1.8,1.1-3.8,1.7-5.7,2.3c-0.6,0.3-1.2,0.4-1.2-0.6
						C328.7,250.2,329,248.6,330.5,248.9z"/>
				</g>
				<g>
					<path d="M372.2,182.2c0-0.2-0.1-0.5-0.1-0.7c2.3-1.8,4-4.4,6.9-5.6C377,178.2,374.9,180.5,372.2,182.2z"/>
				</g>
				<g>
					<path d="M358.5,204.3c0.2,0.2,0.5,0.5,0.7,0.7c-0.3,0.4-0.6,0.7-0.8,1.1c-0.8,0.6-1.5,1.4-2.2,2.1c-0.2,0.2-0.4,0.4-0.6,0.7
						c-0.9,0.2-1.2-0.1-1-1C355.7,206.5,356.4,204.7,358.5,204.3z"/>
				</g>
				<g>
					<path d="M449.9,117.7c-0.4,0-0.8,0-1.2,0c2.4-1.9,5-3.5,7.9-4.6c0,0.2,0,0.4,0,0.6C454.4,114.9,452.1,116.3,449.9,117.7z"/>
				</g>
				<g>
					<path d="M409.2,191.2c0.6,0,1.3,0.1,1.9,0.1c-2.8,1.2-5.5,2.7-8.6,2.8c0.6-0.4,1.1-0.8,1.7-1.2c1.3-1.1,3-1.2,4.6-1.7
						C408.9,191.2,409.1,191.2,409.2,191.2z"/>
				</g>
				<g>
					<path d="M450.3,164.3c2.5-1,4.6-2.8,7.5-2.8c-2.4,1.3-4.7,2.8-7.4,3.5C450.1,164.8,450.1,164.6,450.3,164.3z"/>
				</g>
				<g>
					<path d="M390.9,165.5c0.2,0,0.5,0.1,0.7,0.1c-2.1,1.9-4.3,3.9-6.8,5.3C386.1,168.3,388.6,167,390.9,165.5z"/>
				</g>
				<g>
					<path d="M354.5,163.3c-0.4,0-0.8,0-1.1-0.1c-0.1-1.2,1.1-1.8,1.1-2.9c0.2-0.3,0.4-0.7,0.6-1c0.5-0.3,0.1-1.6,1.2-1.2
						c0.3,1.7,0.2,3.3-1.2,4.6C354.9,162.9,354.8,163.3,354.5,163.3z"/>
				</g>
				<g>
					<path d="M339,246.6c1.9-1.4,4.1-1.9,6.3-2.2c0.3,0.2,0.4,0.4,0.1,0.7c-1.5,0.6-3,1.1-4.5,1.7C340.3,247,339.6,247.1,339,246.6z
						"/>
				</g>
				<g>
					<path d="M400.3,231.3c-0.3-0.1-0.6-0.1-0.9-0.2c2.3-1.6,4.9-1.8,7.7-1.6C404.9,230.5,402.6,231,400.3,231.3z"/>
				</g>
				<g>
					<path d="M352.3,181.1c-0.2-1.2,0.9-1.8,1.2-2.8c0.2-0.9,0.1-1.2-0.8-1.4c0.4-0.5,0.9-1,1.3-1.6c2-0.5,1.3,0.7,1.1,1.7
						C353.9,178.2,353.9,180.2,352.3,181.1z"/>
				</g>
				<g>
					<path d="M370.5,194c0,0.2,0,0.5,0.1,0.7c-2,1.4-3.4,3.5-5.7,4.5c-0.3-0.2-0.3-0.4,0-0.7C366.6,197,368.2,195.1,370.5,194z"/>
				</g>
				<g>
					<path d="M464.8,157.7c0,0.2,0,0.4,0,0.6c-2.3,1.1-4.6,2.2-6.9,3.3C459.7,159.5,462.1,158.4,464.8,157.7z"/>
				</g>
				<g>
					<path d="M365.9,210.7c-1.7,2.4-4.4,3.2-6.8,4.7c-0.2-0.1-0.3-0.2-0.2-0.4c0.1-0.1,0.1-0.2,0.2-0.2
						C361.3,213.3,363.3,211.5,365.9,210.7z"/>
				</g>
				<g>
					<path d="M448.2,252.4c-0.1-0.7-0.5-1.1-1.2-1.2c0.9-1.2,2-2.3,3.9-2.8C450.2,250.1,449.3,251.3,448.2,252.4z"/>
				</g>
				<g>
					<path d="M419,241.5c0-0.2,0-0.4,0-0.6c2.3-1.4,5-1.3,7.4-2.2c0,0.2,0,0.3-0.1,0.5C424.4,241.4,421.6,241,419,241.5z"/>
				</g>
				<g>
					<path d="M359.1,214.7c0,0.2,0,0.4,0,0.6c-2.1,1.4-3.8,3.3-6.4,3.9C354.6,217.4,356.7,215.8,359.1,214.7z"/>
				</g>
				<g>
					<path d="M423.1,254.7c-0.4,0-0.9-0.1-1.3-0.1c2.3-1.3,4.9-1.8,7.5-2.2C427.6,253.9,425.2,254,423.1,254.7z"/>
				</g>
				<g>
					<path d="M347.1,186.7c0.2,0,0.5,0.1,0.7,0.1c-1.2,1.8-2.3,3.6-4.6,4C343.7,188.7,346,188.3,347.1,186.7z"/>
				</g>
				<g>
					<path d="M369.9,197.6c-0.2,0.4-0.4,0.8-0.5,1.2c-1.3,0.8-2.6,1.5-3.9,2.3c-0.3,0.2-0.6,0.2-0.8-0.2
						C366.4,199.7,367.7,197.9,369.9,197.6z"/>
				</g>
				<g>
					<path d="M363.6,253.4c0-0.2,0-0.4,0-0.5c0.8-0.4,1.5-0.8,2.3-1.1c1.8,0.4,3.4-0.5,5.1-0.6C368.9,253,366,252.3,363.6,253.4z"/>
				</g>
				<g>
					<path d="M443.6,258.1c0.7-2.5,2.8-4,4.5-5.8C447.4,254.9,445.4,256.4,443.6,258.1z"/>
				</g>
				<g>
					<path d="M347.1,158.2c-0.4-1.3,0.7-3-0.7-4.1c0.1-0.8,0.2-1.7,1.1-2.9C347.9,153.9,348.2,156,347.1,158.2z"/>
				</g>
				<g>
					<path d="M351,166c-0.6,2.3-1.9,4.1-3.9,5.2C348,169.3,349.4,167.6,351,166z"/>
				</g>
				<g>
					<path d="M326.5,175.2c0,0.2,0.1,0.5,0.1,0.7c-1.5,1-1.1,3.8-3.6,3.9C323.9,178,325,176.5,326.5,175.2z"/>
				</g>
				<g>
					<path d="M322,181.1c-0.7,2.4-3,3.5-4.5,5.2c-0.3-0.2-0.3-0.5-0.1-0.7C318.9,184,320.2,182.3,322,181.1z"/>
				</g>
				<g>
					<path d="M438.9,262.6c1.5-1.6,2.5-3.6,4.7-4.5c-0.8,2-2.5,3.2-4.1,4.5C439.4,262.9,439.1,262.9,438.9,262.6z"/>
				</g>
				<g>
					<path d="M354.6,207.9c0.1,0.6,0.5,0.9,1,1c-0.2,0.9-1.1,1.1-1.7,1.7c-0.3,0.3-0.6,0.4-1,0.1c-0.4-0.3-0.4-0.8-0.1-1.2
						C353.3,208.9,353.7,208.1,354.6,207.9z"/>
				</g>
				<g>
					<path d="M342,187.9c0.2-0.4,0.4-0.8,0.5-1.2c1.3-1,2.6-2,4-3c0,0.2,0,0.5,0.1,0.7C345,185.5,344,187.4,342,187.9z"/>
				</g>
				<g>
					<path d="M352.8,209.6c0,0.7,0.3,1.1,1.1,1.1c-0.5,1.1-1.4,1.9-2.6,2.8C351.1,211.6,351.9,210.6,352.8,209.6z"/>
				</g>
				<g>
					<path d="M377.8,168.9c0.2,0,0.5,0,0.7,0.1c-1.3,1.7-2.6,3.4-4.5,4.6C374.7,171.6,376.4,170.4,377.8,168.9z"/>
				</g>
				<g>
					<path d="M356.8,195.8c0.8,2.1,1.5-0.5,2.3-0.1c-0.7,1.5-2.2,2.1-3.4,3.8C355.4,197.7,356.3,196.8,356.8,195.8z"/>
				</g>
				<g>
					<path d="M327.7,250.7c0.4,0.2,0.8,0.4,1.2,0.6c-1,0.9-2,2-3.8,1.1C325.7,251.3,326.6,250.9,327.7,250.7z"/>
				</g>
				<g>
					<path d="M366,218.1c0,0.2,0,0.4,0,0.5c-1.1,0.4-1.9,1.5-3.3,1.2c-0.4,0-0.9-0.1-1.3-0.1C362.8,219,364,217.7,366,218.1z"/>
				</g>
				<g>
					<path d="M308.8,211.7c0.1,0.8,0.6,1.1,1.3,1.3c-0.1,0.1-0.1,0.2-0.2,0.2c-0.8,0.5-1.8,1.9-2.6,0.9
						C306.5,213.1,307.9,212.4,308.8,211.7z"/>
				</g>
				<g>
					<path d="M364.7,200.8c0.3,0.1,0.5,0.1,0.8,0.2c-1.7,1.2-3.1,2.8-5.2,3.3c0.9-1.7,2.8-2,4-3.4
						C364.4,201,364.6,200.9,364.7,200.8z"/>
				</g>
				<g>
					<path d="M438.9,262.6c0.2,0,0.4,0,0.7,0c-1.2,1.7-2.6,3.2-4.6,4C435.9,264.9,437.6,263.9,438.9,262.6z"/>
				</g>
				<g>
					<path d="M446.9,251.2c-1,1.9-2.6,3-4.6,3.4c-0.1-0.1-0.2-0.2-0.2-0.4c0-0.1,0.1-0.2,0.1-0.2C443.8,253,445.4,252.1,446.9,251.2
						z"/>
				</g>
				<g>
					<path d="M337.9,153c0.4,0.2,0.7-2.1,1.2-0.1c0.2,0.9,0,2,0,3c-0.4,0.6-0.7,1.2-1.1,1.7c-0.8-1.1,1.7-2.6-0.5-3.4
						C337.6,153.8,337.8,153.4,337.9,153z"/>
				</g>
				<g>
					<path d="M354.5,163.3c0.2-0.2,0.4-0.4,0.7-0.6c0.1,2.1-1.2,3.6-2.3,5.2C352.6,166.1,353.9,164.9,354.5,163.3z"/>
				</g>
				<g>
					<path d="M370,179.3c-0.2,0-0.5,0-0.7-0.1c1.3-1.6,2-3.8,4-4.7C372.7,176.5,371,177.7,370,179.3z"/>
				</g>
				<g>
					<path d="M399.1,149.6c-1.2,1.2-2.5,2.3-4.1,2.8c0.8-1.8,2.6-2.5,4-3.5C399.3,149.2,399.3,149.4,399.1,149.6z"/>
				</g>
				<g>
					<path d="M475.6,102.3c-0.3-0.1-0.6-0.1-0.9-0.2c1.3-0.9,2.7-1.9,4-2.8c0.3-0.2,0.6-0.2,0.9,0.1
						C478.4,100.5,477.2,101.7,475.6,102.3z"/>
				</g>
				<g>
					<path d="M334,182.2c0.6-2,2-3.3,3.5-4.6c-0.6,1.1-1.2,2.2-1.8,3.3C335.2,181.5,335.1,182.4,334,182.2z"/>
				</g>
				<g>
					<path d="M339,229.4c0.4,0.8,1.2,0.5,1.9,0.7c-0.7,1-2,1-2.9,1.7c-1.1,0-1-0.6-0.7-1.3C337.7,229.9,338.4,229.8,339,229.4z"/>
				</g>
				<g>
					<path d="M334,182.2c0.5-0.4,1.1-0.8,1.6-1.2c0.4,0.5-0.9,1.6,0.5,1.7c0.3,0.5,0,0.8-0.3,1.1c-0.6,0.6-1.3,1.3-2.2,0.8
						c-0.9-0.6,0.1-1.3,0.2-1.9C333.9,182.5,333.9,182.3,334,182.2z"/>
				</g>
				<g>
					<path d="M354.5,160.3c0.3,1.2-0.5,2-1.1,2.9c-0.7,0.4-0.4,2-1.8,1.7C352.5,163.4,353.5,161.9,354.5,160.3z"/>
				</g>
				<g>
					<path d="M370.5,207.8c0,0.2,0,0.4,0,0.6c-1.5,0.9-2.8,2-4.6,2.3C367,209,369,208.8,370.5,207.8z"/>
				</g>
				<g>
					<path d="M317.4,185.6c0,0.2,0,0.5,0.1,0.7c-1,1.2-2,2.4-3.5,3.2c-0.3-0.2-0.3-0.4-0.1-0.7C315.1,187.7,316.3,186.7,317.4,185.6
						z"/>
				</g>
				<g>
					<path d="M331.7,178.7c0,0.4,0,0.7,0,1.1l0,0c-0.4,0.4-0.8,0.9-1.5,0.7c-0.9-0.7-0.5-1.6-0.2-2.4c0.1-0.8,0.3-1.4,1.1-1.8
						c0.2,0.6,0,1.2-0.2,1.8C330.5,179.3,331.3,178.7,331.7,178.7z"/>
				</g>
				<g>
					<path d="M333.4,233.5c0.8-0.5,1.6-1.1,2.4-1.6c0.4,0.3,0.6,0.7,0.6,1.2c-0.2,0.2-0.4,0.4-0.6,0.6
						C334.9,234.2,334.1,235.3,333.4,233.5z"/>
				</g>
				<g>
					<path d="M314.6,214.7c0.5,0.8,1.3,0.5,1.9,0.7c-1.1,0.8-2.3,1.2-3.7,0.5c-0.4-0.7,0.2-0.8,0.6-1.1
						C313.8,214.7,314.2,214.7,314.6,214.7z"/>
				</g>
				<g>
					<path d="M408.8,191.3c-1.3,1.1-3,1.3-4.6,1.7C405.2,191.2,407,191.3,408.8,191.3z"/>
				</g>
				<g>
					<path d="M335.9,183.4c0.1-0.2,0.2-0.5,0.3-0.7c0.8-0.5,1.6-1.1,2.4-1.6c-0.1,1.6-1.8,2-2.3,3.3c-0.2,0.3-0.5,0.3-0.7,0
						C335.4,184,335.3,183.6,335.9,183.4z"/>
				</g>
				<g>
					<path d="M355.1,177c-0.1-0.7,0.1-1.7-1.1-1.7c0.5-0.8,1.1-1.3,2.1-1.8C356.3,175.1,355.7,176,355.1,177z"/>
				</g>
				<g>
					<path d="M385.3,222.7c0.3,0,0.6,0.1,0.8,0.1c-1.1,1.4-2.7,1-4.1,1.2c-0.3-0.1-0.6-0.2-0.8-0.2
						C382.6,223.4,383.9,223,385.3,222.7z"/>
				</g>
				<g>
					<path d="M333.4,233.5c0.7,1.1,1.5,0.4,2.3,0.1c-0.2,1.5-1.7,0.9-2.5,1.4c-0.3,0.2-0.9,0-0.7-0.5
						C332.6,234.1,333.1,233.9,333.4,233.5z"/>
				</g>
				<g>
					<path d="M336.3,233c-0.4-0.3-0.6-0.7-0.6-1.2c0.5-0.4,1.1-0.9,1.6-1.3c0.2,0.4,0.5,0.9,0.7,1.3
						C337.7,232.7,337.2,233.1,336.3,233z"/>
				</g>
				<g>
					<path d="M356.4,256.4c-0.1,0.2-0.1,0.3-0.2,0.5c-1.5,0-3,0-4.5,0c-0.3-1.1,0.9-0.6,1.1-1.1c0.2-0.1,0.3-0.1,0.5-0.1
						c0.3-0.3,0.6-0.2,0.7,0.2C354.7,256.6,355.6,256.2,356.4,256.4z"/>
				</g>
				<g>
					<path d="M450.3,164.3c0,0.2,0.1,0.5,0.1,0.7c-0.9,0.4-1.6,1.4-2.8,1.2C448,165,449,164.5,450.3,164.3z"/>
				</g>
				<g>
					<path d="M399.1,149.6c0-0.2,0-0.5-0.1-0.7c0.9-0.8,1.5-2,2.8-2.3c0,0.2,0,0.5,0.1,0.7C400.9,148.1,400,148.9,399.1,149.6z"/>
				</g>
				<g>
					<path d="M313.9,188.8c0,0.2,0,0.4,0.1,0.7c-1,0.8-1.9,1.5-2.9,2.3c-0.3-0.2-0.3-0.4-0.1-0.7C312,190.3,313,189.6,313.9,188.8z"
						/>
				</g>
				<g>
					<path d="M386.5,182.8c-0.9,1.2-2.1,1.8-3.5,2.2C383.8,183.6,385,182.9,386.5,182.8z"/>
				</g>
				<g>
					<path d="M312.9,210.8c0.7-1.4,1.6-2.6,3.4-2.4C315.3,209.4,314.2,210.3,312.9,210.8z"/>
				</g>
				<g>
					<path d="M456.7,226.1c0-0.3-0.1-0.5-0.1-0.8c0.8-0.5,1.5-1.1,2.3-1.6c0.3-0.3,0.6-0.2,0.7,0.2
						C458.7,224.7,457.7,225.4,456.7,226.1z"/>
				</g>
				<g>
					<path d="M363,187.7c0,1.5-1.1,2.3-2.3,2.9C361.1,189.4,361.8,188.3,363,187.7z"/>
				</g>
				<g>
					<path d="M364.7,198.6c0,0.2,0,0.5,0,0.7c-0.4,0.4-0.8,0.8-1.1,1.2c-0.6,0.3-1.1,0.8-1.8,0.5C362.7,200,363.4,198.9,364.7,198.6
						z"/>
				</g>
				<g>
					<path d="M392.3,179.4c-1.1,0.6-1.9,1.9-3.4,1.7C389.8,180.1,390.7,179.1,392.3,179.4z"/>
				</g>
				<g>
					<path d="M460.1,226.1c0-0.4,0-0.8-0.1-1.2c0.2-0.2,0.4-0.4,0.6-0.6c0.4-0.5,0.8-1.2,1.6-0.6
						C461.7,224.7,461.1,225.6,460.1,226.1z"/>
				</g>
				<g>
					<path d="M345.4,245c0-0.2-0.1-0.4-0.1-0.7c1.1-0.4,2.3-0.9,3.5-0.5C347.8,244.5,346.7,245,345.4,245z"/>
				</g>
				<g>
					<path d="M440.9,255.3c-0.8,0.8-1.9,1.4-3,1.6c0.3-1.1,1.4-1.2,2.2-1.8C440.4,254.9,440.7,255,440.9,255.3z"/>
				</g>
				<g>
					<path d="M359.1,254.1c-0.9,1-2.4,0.3-3.5,1.1c-0.2-0.1-0.2-0.3-0.2-0.4c0.1-0.1,0.1-0.2,0.2-0.2
						C356.7,253.7,357.9,254.1,359.1,254.1z"/>
				</g>
				<g>
					<path d="M346,224.9c-0.4,0-0.7,0-1.1,0c0.7-0.9,1.5-1.8,2.8-1.8C347.5,224.1,346.2,224.1,346,224.9z"/>
				</g>
				<g>
					<path d="M356.2,208.2c0.2-1.2,1-1.9,2.2-2.1C357.9,207.1,357.1,207.7,356.2,208.2z"/>
				</g>
				<g>
					<path d="M320.9,209.6c0-1.5,0.8-2.2,2.2-2.4C322.4,208.1,321.7,208.9,320.9,209.6z"/>
				</g>
				<g>
					<path d="M365.3,184.4c0,0.4,0,0.8,0,1.2c-0.2,0.2-0.4,0.4-0.6,0.6c-0.5,0.2-1.1,0.4-1.6,0.6C363.7,185.7,364.5,185,365.3,184.4
						z"/>
				</g>
				<g>
					<path d="M461.2,222.6c0.3-0.8,1.1-1.4,1.7-1c0.8,0.5,0.1,1.2-0.4,1.8C461.9,223.2,461.4,223.2,461.2,222.6z"/>
				</g>
				<g>
					<path d="M304.8,233.5c0.2,0,0.4,0,0.6,0c-0.5,0.9-1.2,1.5-2.2,1.8c-0.3-0.1-0.6-0.1-0.9-0.2C303.2,234.6,304,234,304.8,233.5z"
						/>
				</g>
				<g>
					<path d="M339,246.6c0.6,0.1,1.3,0.1,1.9,0.2c-1.2,0.4-2.3,0.8-3.5,1.2c0.2-0.4,0.4-0.8,0.5-1.3
						C338.3,246.6,338.7,246.6,339,246.6z"/>
				</g>
				<g>
					<path d="M310.6,209.6c-0.1,1.1-0.8,1.8-1.8,2.2C309,210.7,309.5,210,310.6,209.6z"/>
				</g>
				<g>
					<path d="M388.9,181.1c-0.4,1.1-1.3,1.5-2.3,1.7C386.9,181.6,387.9,181.3,388.9,181.1z"/>
				</g>
				<g>
					<path d="M311.1,191.1c0,0.2,0,0.5,0.1,0.7c-0.8,0.4-1.2,1.3-2.3,1.2C309.2,191.9,310.1,191.5,311.1,191.1z"/>
				</g>
				<g>
					<path d="M356.3,158.2c-0.4,0.4-0.8,0.8-1.2,1.2c0.1-0.5,0.2-1.1,0.3-1.6c0.1-0.4,0.1-1.1,0.7-0.8
						C356.6,157.1,356.5,157.7,356.3,158.2z"/>
				</g>
				<g>
					<path d="M461.2,222.6c0.5,0.1,1,0.2,1.3,0.8c0,0.2,0,0.4-0.2,0.4c-0.5,0.2-1.1,0.4-1.6,0.6c0-0.2,0-0.4,0-0.6
						C460.3,223.2,461,223,461.2,222.6L461.2,222.6z"/>
				</g>
				<g>
					<path d="M337.4,160.4c0-1-0.3-2,0.6-2.8C338,158.6,338.3,159.7,337.4,160.4z"/>
				</g>
				<g>
					<path d="M440.9,255.3c-0.3-0.1-0.6-0.1-0.8-0.2c0.7-0.5,1.3-1.1,2.2-1.2c0,0.2,0,0.4,0.1,0.6
						C441.8,254.8,441.4,255.1,440.9,255.3z"/>
				</g>
				<g>
					<path d="M461.2,222.6c-0.2,0.4-0.3,0.8-0.5,1.2c-0.4,0.1-0.7,0.1-1.1,0.2c-0.2-0.1-0.5-0.1-0.7-0.2
						C459.7,223.4,460.4,223,461.2,222.6z"/>
				</g>
				<g>
					<path d="M352.8,255.8c-0.4,0.4-0.8,0.7-1.1,1.1c-0.4,0.1-0.9,0-0.8-0.3C351.1,255.6,352,255.7,352.8,255.8z"/>
				</g>
				<g>
					<path d="M355.6,254.6c0,0.2,0,0.4,0,0.6c-0.5,0.3-1.1,0.5-1.6,0.8c-0.2-0.1-0.4-0.1-0.7-0.2C354.1,255.4,354.9,255,355.6,254.6
						z"/>
				</g>
				<g>
					<path d="M324.2,253.3c-0.2,0.5-0.5,0.7-0.9,0.6c-0.2-0.1-0.4-0.4-0.4-0.6c0-0.5,0.4-0.5,0.8-0.4
						C323.9,253,324.1,253.2,324.2,253.3z"/>
				</g>
				<g>
					<path d="M313.4,214.7c-0.2,0.4-0.4,0.7-0.6,1.1c-0.5,0-1-0.1-0.9-0.6C312.1,214.4,312.9,214.7,313.4,214.7z"/>
				</g>
				<g>
					<path d="M396.2,231.2c-0.6,0.8-1.5,1.1-2.5,1C394.4,231.5,395.2,231.1,396.2,231.2z"/>
				</g>
				<g>
					<path d="M397.4,245.6c5.7-1.1,11.5-1.9,17.1-3.3c1.2-0.3,2.6-0.2,3.9-0.2c-7.9,2.1-15.7,4.6-24,4.6
						C395.4,246.3,396.4,245.9,397.4,245.6z"/>
				</g>
				<g>
					<path d="M383.5,255.3c-4.7-0.2-9.3-0.5-14,0c-1.8,0.2-3.7,0.5-5.4-0.2c6.5-0.8,13-1.3,19.5-0.4l0.2,0.1l0,0.2
						C383.7,255.1,383.6,255.2,383.5,255.3z"/>
				</g>
				<g>
					<path d="M419,241.5c2.4-1,5.1-0.8,7.4-2.3c0.3,0.1,0.5,0.1,0.8,0.2c-2.4,2.5-5.7,2.1-8.8,2.7
						C418.6,241.9,418.8,241.7,419,241.5z"/>
				</g>
				<g>
					<path d="M371.1,251.2c3.4-1.1,6.7-2.5,10.3-2.3C378,250.1,374.7,251.2,371.1,251.2z"/>
				</g>
				<g>
					<path d="M383.8,255.1c-0.1-0.1-0.1-0.2-0.2-0.4c4,0.2,8.1-0.7,12,0.5C391.7,255.1,387.7,255.1,383.8,255.1z"/>
				</g>
				<g>
					<path d="M364.1,255.1c1.8,0.1,3.6,0.1,5.4,0.2c-0.1,0.1-0.2,0.2-0.3,0.4c-3.4,0-6.8,0.1-10.2,0.1c0.4-0.7,1.2-0.5,1.8-0.6
						C362,255.1,363,255.1,364.1,255.1z"/>
				</g>
				<g>
					<path d="M421.3,254.7c-1.7,0.9-3.4,0.3-5.2,0.5C417.8,254.1,419.6,254.8,421.3,254.7z"/>
				</g>
				<g>
					<path d="M415.6,255.2c-1.4,1.1-3,1.2-4.6,1.1C412.5,255.6,414,255.1,415.6,255.2z"/>
				</g>
				<g>
					<path d="M399.6,255.8c-1.2-0.1-2.4,0.3-3.4-0.6C397.3,255.3,398.6,254.8,399.6,255.8z"/>
				</g>
				<g>
					<path d="M402.5,256.3c-1,0-2,0.4-2.9-0.5C400.6,255.9,401.6,255.5,402.5,256.3z"/>
				</g>
				<g>
					<path d="M343.1,162.8c1.1-2.1,2.3-4.3,3-6.6c0.9,3.1-0.8,5.6-1.9,8.3C344.2,163.6,344.3,162.8,343.1,162.8z"/>
				</g>
				<g>
					<path d="M333.4,186.7c-0.2,0.4-0.3,0.8-0.5,1.2c-0.9,1.3-2.3,1.8-3.2,0.5c-0.9-1.3,0-2.7,1.6-3.3
						C331.7,185.9,332.6,186.3,333.4,186.7z"/>
				</g>
				<g>
					<path d="M338,189.7c1.1-0.5,2.2-0.9,3.4-1.4c-1.2,1.9-3.4,2.4-5.1,3.5c-0.7-0.1-1.6,0.8-2-0.2c-0.4-1.2,0.4-2,1.3-2.7
						c0,0,0.2,0.1,0.2,0.1C336.3,190,337.2,189.6,338,189.7z"/>
				</g>
				<g>
					<path d="M335.9,183.4c-0.1,0.3-0.2,0.6-0.3,0.9c-0.5,1.1-1.5,1.5-2.4,2.1c-2.2,0.2-1.6-0.9-0.9-2c0.3-0.8,0.9-1.4,1.7-1.8
						c0,0.5,0,1,0,1.6C334.6,183.9,335.2,183.7,335.9,183.4z"/>
				</g>
				<g>
					<path d="M330.5,180.4c0.4-0.2,0.8-0.4,1.1-0.6c-0.3,2.2-1.7,3.5-3.4,4.6c-0.7-1,0.2-1.7,0.6-2.5
						C329.3,181.3,329.9,180.9,330.5,180.4z"/>
				</g>
				<g>
					<path d="M329.4,182.2c-0.2,0.9-1.3,1.2-1.2,2.2c-1.3,0.7-1.4-0.3-1.3-1.1c0.1-0.8,0.5-1.5,0.8-2.3c0.1-0.1,0.3-0.1,0.5-0.1
						C328.8,181.1,329,181.7,329.4,182.2z"/>
				</g>
				<g>
					<path d="M332.3,184.4c0.1,0.7-0.8,2,1,1.7c0.2,0.1,0.3,0.2,0.3,0.4c0,0.2-0.1,0.2-0.1,0.2c0,0,0,0,0,0
						c-1.7,0.8-2.7,0.6-2.1-1.6C331.6,184.9,331.9,184.6,332.3,184.4z"/>
				</g>
				<g>
					<path d="M333.4,186.7c0-0.2-0.1-0.4-0.1-0.6c0.8-0.6,1.6-1.2,2.3-1.8c0.2,0,0.5,0,0.7,0.1C335.5,185.4,334.7,186.4,333.4,186.7
						z"/>
				</g>
				<g>
					<path d="M329.4,182.2c-0.9,0.1-1.1-0.5-1.2-1.2c0.6-0.9,1.2-1.9,1.8-2.8c0.3,0.7-0.3,1.7,0.6,2.3
						C330.8,181.4,329.6,181.5,329.4,182.2z"/>
				</g>
				<g>
					<path d="M338,189.7c-0.4,0.7-1,1.2-1.8,0.9c-0.7-0.3-0.5-0.9-0.4-1.4c0.5-0.2,1.1-0.4,1.6-0.7
						C337.6,188.8,337.8,189.2,338,189.7z"/>
				</g>
			</g>
			<g>
				<path d="M433.3,448.2c-0.2,0.3-0.4,0.7-0.6,1c-0.8,0-1.6,0-2.3,0.1C430.8,447.5,432.3,448.3,433.3,448.2z"/>
			</g>
		</g>
	</g>
</g>
<g id="circle">
	<g>
		<path d="M234.5,518.5c-65.5,0-118.9-53.3-118.9-118.9c0-65.5,53.3-118.9,118.9-118.9s118.9,53.3,118.9,118.9
			C353.4,465.2,300,518.5,234.5,518.5z M234.5,300.8c-54.5,0-98.9,44.4-98.9,98.9c0,54.5,44.4,98.9,98.9,98.9
			c54.5,0,98.9-44.4,98.9-98.9C333.4,345.2,289,300.8,234.5,300.8z"/>
	</g>
	<g>
		<path d="M234.5,527.9c-70.7,0-128.3-57.5-128.3-128.3c0-70.7,57.5-128.3,128.3-128.3S362.7,329,362.7,399.7
			C362.7,470.4,305.2,527.9,234.5,527.9z M234.5,274.4c-69.1,0-125.3,56.2-125.3,125.3c0,69.1,56.2,125.3,125.3,125.3
			s125.3-56.2,125.3-125.3C359.7,330.6,303.6,274.4,234.5,274.4z"/>
	</g>
</g>
<g id="text">
	<g>
		<g>
			<path d="M124.5,328.8l-13.2-2.9l0,0.1c0.9,0.5,1.9,1.1,3.1,1.8l7.6,5l-0.8,1.3l-12-7.8l1.4-2.1l12.3,2.7l0-0.1l-7.4-10.3l1.4-2.1
				l12,7.8l-0.9,1.4l-7.7-5c-0.9-0.6-1.8-1.2-2.8-2l0,0.1l7.9,11L124.5,328.8z"/>
		</g>
		<g>
			<path d="M137.4,312l-10.5-9.6l1.1-1.2l10.5,9.6L137.4,312z"/>
		</g>
		<g>
			<path d="M151.4,298.6l-1.3,1.1l-8.2-9.8l-3.5,2.9l-0.9-1.1l8.2-6.8l0.9,1.1l-3.5,2.9L151.4,298.6z"/>
		</g>
		<g>
			<path d="M171.3,285l-6.8,4.1l-7.3-12.3l6.8-4.1l0.8,1.3l-5.4,3.2l2.4,4l5.1-3l0.8,1.3l-5.1,3l2.7,4.5l5.4-3.2L171.3,285z"/>
		</g>
		<g>
			<path d="M188.7,272.9c0.5,1.2,0.4,2.2-0.2,3.2c-0.6,1-1.6,1.8-3.1,2.4c-1.6,0.6-2.9,0.9-3.9,0.8l-0.6-1.5c0.6,0,1.3,0,2-0.2
				c0.7-0.1,1.4-0.3,2-0.6c1-0.4,1.7-0.9,2.1-1.5c0.4-0.6,0.4-1.2,0.1-1.9c-0.2-0.5-0.4-0.8-0.7-1c-0.3-0.2-0.7-0.4-1.2-0.4
				c-0.5-0.1-1.3-0.1-2.3-0.1c-1.4,0.1-2.5-0.1-3.3-0.5c-0.8-0.4-1.4-1.1-1.7-2c-0.4-1-0.4-2,0.2-2.9c0.5-0.9,1.4-1.6,2.7-2.1
				c1.3-0.5,2.6-0.8,3.9-0.7l0.1,1.5c-1.3,0-2.4,0.2-3.5,0.6c-0.8,0.3-1.4,0.8-1.7,1.3c-0.3,0.5-0.4,1.1-0.1,1.7
				c0.2,0.5,0.4,0.8,0.7,1c0.3,0.2,0.7,0.4,1.2,0.5c0.5,0.1,1.2,0.1,2.2,0.1c1.6-0.1,2.8,0.1,3.5,0.4
				C187.8,271.4,188.4,272,188.7,272.9z"/>
		</g>
		<g>
			<path d="M212.5,270.6l-1.6,0.3l-1.4-6.6l-7.4,1.6l1.4,6.6l-1.6,0.3l-3-14l1.6-0.3l1.3,5.9l7.4-1.6l-1.3-5.9l1.6-0.3L212.5,270.6z
				"/>
		</g>
		<g>
			<path d="M250.9,269.7l-1.9-0.2l-4.7-7.3l-1.6,1.2l-0.4,5.6l-1.7-0.1l1.1-14.2l1.7,0.1l-0.5,7.1l7-6.6l2,0.2l-6.2,5.7L250.9,269.7
				z"/>
		</g>
		<g>
			<path d="M272.6,274.4l-1.6-0.4l1.7-6.5l-7.3-1.9l-1.7,6.5l-1.6-0.4l3.6-13.8l1.6,0.4l-1.5,5.9l7.3,1.9l1.5-5.9l1.6,0.4
				L272.6,274.4z"/>
		</g>
		<g>
			<path d="M293.3,282.7l0.3-4.9l-5.2-2.4l-3.5,3.4l-1.5-0.7l11.1-10.7l1.3,0.6l-0.9,15.4L293.3,282.7z M293.7,276.2l0.3-4.7
				c0-0.6,0.1-1.3,0.3-2.1c-0.4,0.5-0.9,1-1.4,1.6l-3.4,3.3L293.7,276.2z"/>
		</g>
		<g>
			<path d="M308.3,291.7l-1.4-0.9l7.2-10.6l-3.7-2.5l0.8-1.2l8.9,6l-0.8,1.2l-3.7-2.5L308.3,291.7z"/>
		</g>
		<g>
			<path d="M326.4,298.3l-4.1,4.3l-1.2-1.1l9.8-10.4l2.9,2.7c1.3,1.2,2,2.3,2.1,3.4c0.1,1.1-0.2,2.1-1.2,3.1
				c-1.3,1.4-2.9,1.6-4.7,0.8l-1.6,7.3l-1.4-1.3l1.6-6.7L326.4,298.3z M327.3,297.3l1.7,1.6c0.9,0.8,1.6,1.2,2.4,1.3
				c0.7,0,1.4-0.3,2-1c0.6-0.7,0.9-1.4,0.8-2.1c-0.1-0.7-0.6-1.4-1.5-2.3l-1.6-1.5L327.3,297.3z"/>
		</g>
		<g>
			<path d="M336.1,317.3l11.1-8.9l1,1.3l-11.1,8.9L336.1,317.3z"/>
		</g>
		<g>
			<path d="M338.1,495.4c-1.1-0.9-1.6-2-1.6-3.3c0.1-1.3,0.7-2.6,1.9-4l1.1-1.3l-4.3-3.7l1.1-1.3l10.8,9.3l-2.4,2.8
				C342.4,496.8,340.2,497.2,338.1,495.4z M340.6,487.8l-1,1.1c-1,1.1-1.5,2.1-1.5,2.9c-0.1,0.8,0.3,1.6,1.1,2.2
				c0.7,0.6,1.5,0.8,2.2,0.7s1.6-0.7,2.4-1.7l1.2-1.4L340.6,487.8z"/>
		</g>
		<g>
			<path d="M313.2,504.4l1.3-1.1l4.3,5.2l5.8-4.8l-4.3-5.2l1.3-1.1l9,11l-1.3,1.1l-3.8-4.7l-5.8,4.8l3.8,4.7l-1.3,1.1L313.2,504.4z"
				/>
		</g>
		<g>
			<path d="M294.7,524c-1.1-2-1.4-3.9-1.1-5.6s1.5-3,3.3-4c1.8-1,3.6-1.2,5.2-0.6c1.6,0.6,3,1.9,4.1,4c1.1,2,1.5,3.9,1.1,5.6
				c-0.4,1.7-1.5,3-3.4,4c-1.8,1-3.5,1.2-5.2,0.6C297.2,527.4,295.8,526.1,294.7,524z M304.7,518.6c-0.9-1.7-2-2.8-3.2-3.3
				c-1.2-0.5-2.5-0.3-3.9,0.4c-1.4,0.8-2.2,1.8-2.4,3s0.1,2.7,1,4.4c0.9,1.7,2,2.8,3.2,3.3s2.5,0.4,3.8-0.4c1.4-0.8,2.2-1.8,2.5-3
				C305.9,521.7,305.6,520.3,304.7,518.6z"/>
		</g>
		<g>
			<path d="M275.5,524l1.6-0.5l4.1,12.1l4.3-1.4l0.5,1.4l-10.1,3.4l-0.5-1.4l4.3-1.4L275.5,524z"/>
		</g>
		<g>
			<path d="M248.8,537.1c-0.3-2.3,0-4.1,0.9-5.6c0.9-1.5,2.4-2.4,4.5-2.7c2.1-0.3,3.8,0.1,5.1,1.2c1.3,1.1,2.2,2.8,2.5,5.1
				c0.3,2.3,0,4.2-0.9,5.6c-0.9,1.4-2.5,2.3-4.5,2.6c-2,0.3-3.7-0.1-5-1.2C249.9,541.1,249.1,539.4,248.8,537.1z M260,535.4
				c-0.3-1.9-0.9-3.3-1.9-4.2c-1-0.9-2.2-1.2-3.8-0.9c-1.6,0.2-2.7,0.9-3.3,2c-0.6,1.1-0.8,2.6-0.5,4.5c0.3,1.9,0.9,3.3,1.8,4.1
				s2.2,1.2,3.8,0.9c1.6-0.2,2.7-0.9,3.3-2S260.3,537.3,260,535.4z"/>
		</g>
		<g>
			<path d="M228.6,537.9l-4.9-0.2l0.2-6.9c0.8-0.2,1.5-0.4,2.3-0.5s1.7-0.1,2.7-0.1c2.2,0.1,3.8,0.8,5,2.1c1.2,1.3,1.7,3.1,1.6,5.5
				c-0.1,1.5-0.4,2.8-1,3.9c-0.6,1.1-1.5,1.9-2.7,2.5c-1.1,0.5-2.5,0.8-4,0.7c-1.5-0.1-2.9-0.4-4.2-1l0.7-1.4c1.3,0.6,2.5,0.9,3.7,1
				c1.7,0.1,3.1-0.4,4.1-1.4c1-1,1.6-2.4,1.6-4.3c0.1-1.9-0.4-3.4-1.3-4.4s-2.3-1.6-4.1-1.6c-1,0-2,0-2.9,0.2l-0.2,4.4l3.2,0.1
				L228.6,537.9z"/>
		</g>
		<g>
			<path d="M208.4,534l1.2-5.8l1.6,0.3l-3,14l-3.8-0.8c-1.7-0.4-2.9-1-3.6-1.8c-0.7-0.8-0.9-1.9-0.6-3.2c0.4-1.8,1.6-2.9,3.6-3.1
				l-2.5-7.1l1.9,0.4l2.1,6.5L208.4,534z M208.1,535.4l-2.2-0.5c-1.1-0.2-2-0.2-2.7,0.1c-0.6,0.3-1,1-1.2,1.9
				c-0.2,0.9-0.1,1.6,0.4,2.2c0.5,0.5,1.3,0.9,2.5,1.2l2.1,0.4L208.1,535.4z"/>
		</g>
		<g>
			<path d="M181.9,519.6l0,4.9l5.3,2.1l3.3-3.6l1.6,0.6l-10.5,11.2l-1.3-0.5l0.1-15.4L181.9,519.6z M181.8,526l-0.1,4.7
				c0,0.6-0.1,1.3-0.1,2.2c0.4-0.5,0.8-1.1,1.3-1.7l3.2-3.5L181.8,526z"/>
		</g>
		<g>
			<path d="M157.2,517.6c0.8-1.2,1.7-1.9,3-2.1c1.2-0.2,2.7,0.2,4.2,1.2l1.4,0.9l2.9-4.8l1.4,0.9l-7.4,12.2l-3.2-1.9
				C156.5,522.1,155.7,520,157.2,517.6z M165.1,518.9l-1.3-0.8c-1.3-0.8-2.3-1.1-3.1-1c-0.8,0.1-1.5,0.5-2,1.4
				c-0.5,0.8-0.6,1.6-0.3,2.3c0.3,0.7,1,1.4,2.1,2.1l1.6,1L165.1,518.9z"/>
		</g>
		<g>
			<path d="M144.2,494.5l1.2,1.1l-4.4,5.1l5.7,5l4.4-5.1l1.2,1.1l-9.4,10.7l-1.2-1.1l4-4.6l-5.7-5l-4,4.6l-1.2-1.1L144.2,494.5z"/>
		</g>
		<g>
			<path d="M127.3,486.5l-7.9,1.5l-1.1-1.4l9.8-1.8l4.3-3.5l1.1,1.3l-4.2,3.4l-3.9,9.2l-1.1-1.4L127.3,486.5z"/>
		</g>
	</g>
	<g>
		<g>
			<path d="M168.9,409c0-8.6,0.1-17.1,0-25.7c0-2.3,0.8-2.9,3-2.9c16.6,0.1,33.2,0,49.8,0c7.6,0,13.1,5.1,13.2,12.7
				c0.2,14.1,0.1,28.1,0.1,42.2c0,1.7-0.5,2.5-2.3,2.4c-2.2-0.1-4.3-0.2-6.5,0c-2.1,0.2-2.6-0.7-2.6-2.6c0.1-12,0-24,0-36
				c0-3.8-0.1-3.9-4-3.9c-3,0-6,0.1-8.9,0c-2.3-0.1-2.9,0.8-2.9,3c0.1,12.1,0,24.2,0.1,36.3c0,2.6-0.6,3.7-3.3,3.3
				c-2.7-0.4-6.2,1.2-8.1-0.7c-1.7-1.7-0.5-5.2-0.5-7.8c-0.1-10,0-20,0-30c0-3.9,0-3.9-3.8-3.9c-2.9,0-5.8,0.1-8.7-0.1
				c-2.3-0.1-3,0.7-3,2.9c0.1,11.9,0,23.8,0.1,35.7c0,3.9,0,3.9-3.8,3.9c-1.6,0-3.3-0.2-4.9,0c-2.6,0.3-3.2-0.9-3.1-3.2
				C168.9,425.9,168.9,417.4,168.9,409C168.9,409,168.9,409,168.9,409z"/>
		</g>
		<g>
			<path d="M239.4,399.6c0-11.7,0.1-23.5,0-35.2c0-2.3,0.8-3.1,3-3c3.2,0.1,6.3,0.1,9.5,0c2.2-0.1,3,0.6,3,2.9
				c-0.1,11.2-0.1,22.4-0.1,33.6c0,3.6,0.2,3.5,3.9,3.8c3.6,0.3,6.1-1.2,8.5-3.7c5.1-5.5,10.4-10.7,15.6-16.1
				c1.1-1.1,2.2-1.7,3.8-1.6c3.3,0.1,6.7,0,10,0c1.3,0,3.1-0.6,3.5,1.2c0.3,1.6,0.6,3.5-1,5c-4.8,4.8-9.6,9.8-14.3,14.7
				c-2,2.1-3.9,4.2-6,6.2c-1.2,1.2-1,2.1,0.1,3.2c6.6,6.8,13.2,13.6,19.7,20.4c0.7,0.8,1.5,1.5,1.6,2.7c0.4,3.2-0.1,3.8-3.3,3.8
				c-3.1,0-6.2-0.2-9.2,0.1c-2.6,0.3-4.1-0.8-5.8-2.5c-5.5-5.8-11.2-11.5-16.8-17.1c-1.4-1.4-7.4-2.2-9.2-1.3c-1.2,0.6-1,1.6-1,2.6
				c0,5.3-0.1,10.6,0,16c0,1.9-0.4,2.6-2.4,2.5c-3.3-0.1-6.7-0.2-10,0.1c-2.3,0.2-3-0.6-2.9-2.9
				C239.4,423.1,239.4,411.4,239.4,399.6C239.4,399.6,239.4,399.6,239.4,399.6z"/>
		</g>
	</g>
</g>
<g id="line">
	<g>
		<polygon points="145,544.7 59.9,544.7 59.9,459.6 68.7,459.6 68.7,535.9 145,535.9 		"/>
	</g>
	<g>
		<polygon points="59.9,345.4 59.9,250.6 154.7,250.6 154.7,260.4 69.7,260.4 69.7,345.4 		"/>
	</g>
</g>
</svg>
